<svg width="1000" height="1000" viewBox="0 0 1000 1000" fill="none" xmlns="http://www.w3.org/2000/svg">
<g clip-path="url(#clip0_3_587)">
<path d="M513.309 920.842C752.83 920.842 947 726.672 947 487.151C947 247.63 752.83 53.46 513.309 53.46C273.788 53.46 79.618 247.63 79.618 487.151C79.618 726.672 273.788 920.842 513.309 920.842Z" fill="url(#paint0_linear_3_587)"/>
<path d="M824.236 583.997H812.943V564.901H824.236V567.998H815.955V580.9H824.236V583.997Z" fill="#193149"/>
<path d="M830.133 568.707H827.121V580.191H830.133V568.707Z" fill="#193149"/>
<path d="M834.211 572.901H823.043V575.997H834.211V572.901Z" fill="#193149"/>
<path d="M843.734 568.707H840.722V580.191H843.734V568.707Z" fill="#193149"/>
<path d="M847.812 572.901H836.644V575.997H847.812V572.901Z" fill="#193149"/>
<path d="M901.04 627.213H772.95V737.64H901.04V627.213Z" fill="#8EDDEB"/>
<path d="M901.04 617.148H772.95V627.213H901.04V617.148Z" fill="#44ABB0"/>
<path opacity="0.3" d="M901.04 627.213H772.95V629.801H901.04V627.213Z" fill="#1C1F23"/>
<path opacity="0.3" d="M812.756 634.594H778.171V639.004H812.756V634.594Z" fill="#1C1F23"/>
<path opacity="0.3" d="M856.293 642.263H800.918V646.672H856.293V642.263Z" fill="#1C1F23"/>
<path opacity="0.3" d="M839.349 649.931H800.918V654.34H839.349V649.931Z" fill="#1C1F23"/>
<path opacity="0.3" d="M860.115 649.931H843.172V654.34H860.115V649.931Z" fill="#ED1C24"/>
<path opacity="0.3" d="M828.605 657.6H814.761V662.009H828.605V657.6Z" fill="#ED1C24"/>
<path opacity="0.3" d="M846.271 657.6H832.428V662.009H846.271V657.6Z" fill="#1C1F23"/>
<path opacity="0.3" d="M853.193 665.269H814.761V669.678H853.193V665.269Z" fill="#1C1F23"/>
<path opacity="0.3" d="M832.148 672.937H814.761V677.346H832.148V672.937Z" fill="#1C1F23"/>
<path opacity="0.3" d="M873.959 672.937H835.97V677.346H873.959V672.937Z" fill="#ED1C24"/>
<path opacity="0.3" d="M842.449 680.605H828.605V685.014H842.449V680.605Z" fill="#1C1F23"/>
<path opacity="0.3" d="M860.115 680.605H846.271V685.014H860.115V680.605Z" fill="#ED1C24"/>
<path opacity="0.3" d="M867.037 688.273H828.605V692.683H867.037V688.273Z" fill="#1C1F23"/>
<g opacity="0.3">
<path opacity="0.3" d="M856.293 695.943H828.605V700.352H856.293V695.943Z" fill="#1C1F23"/>
<path opacity="0.3" d="M887.803 695.943H860.115V700.352H887.803V695.943Z" fill="#1C1F23"/>
</g>
<path opacity="0.3" d="M863.518 703.611H842.449V708.02H863.518V703.611Z" fill="#1C1F23"/>
<path opacity="0.3" d="M873.959 703.611H867.34V708.02H873.959V703.611Z" fill="#ED1C24"/>
<path opacity="0.3" d="M868.691 711.279H842.449V715.688H868.691V711.279Z" fill="#ED1C24"/>
<path opacity="0.3" d="M856.293 718.949H842.449V723.358H856.293V718.949Z" fill="#1C1F23"/>
<path d="M781.294 620.024H777.099V624.337H781.294V620.024Z" fill="#ED1C24"/>
<path d="M788.425 620.024H784.23V624.337H788.425V620.024Z" fill="#FFDE17"/>
<path d="M795.557 620.024H791.362V624.337H795.557V620.024Z" fill="#8DC63F"/>
<path opacity="0.3" d="M846.016 630.036C827.172 630.036 811.896 645.744 811.896 665.12C811.896 671.923 813.785 678.271 817.045 683.649L786.427 715.131C783.403 718.24 783.403 723.281 786.427 726.39C789.451 729.499 794.353 729.499 797.376 726.39L827.994 694.908C833.224 698.26 839.398 700.203 846.015 700.203C864.858 700.203 880.134 684.495 880.134 665.12C880.135 645.744 864.859 630.036 846.016 630.036Z" fill="#1C1F23"/>
<path d="M786.428 718.534C783.404 715.425 783.404 710.385 786.428 707.276L839.391 652.817L850.341 664.075L797.377 718.533C794.354 721.643 789.451 721.643 786.428 718.534Z" fill="#193149"/>
<path d="M879.735 662.792C882.722 643.66 870.059 625.661 851.453 622.59C832.847 619.519 815.342 632.538 812.355 651.67C809.368 670.802 822.031 688.801 840.637 691.872C859.243 694.943 876.748 681.923 879.735 662.792Z" fill="#193149"/>
<path d="M856.248 682.388C869.74 676.587 876.104 660.637 870.462 646.764C864.82 632.89 849.308 626.346 835.816 632.148C822.324 637.949 815.96 653.899 821.602 667.772C827.244 681.646 842.755 688.19 856.248 682.388Z" fill="#8EDDEB"/>
<mask id="mask0_3_587" style="mask-type:luminance" maskUnits="userSpaceOnUse" x="819" y="630" width="54" height="55">
<path d="M856.248 682.388C869.74 676.587 876.104 660.637 870.462 646.764C864.82 632.89 849.308 626.346 835.816 632.148C822.324 637.949 815.96 653.899 821.602 667.772C827.244 681.646 842.755 688.19 856.248 682.388Z" fill="white"/>
</mask>
<g mask="url(#mask0_3_587)">
<path d="M838.006 670.714H822.026V646.872H838.006V670.714ZM825.787 666.847H834.246V650.739H825.787V666.847Z" fill="#193149"/>
<path d="M848.553 646.872H844.793V670.714H848.553V646.872Z" fill="#193149"/>
<path d="M882.782 670.714H866.802V646.872H882.782V670.714ZM870.563 666.847H879.022V650.739H870.563V666.847Z" fill="#193149"/>
<path d="M860.014 646.872H856.254V670.714H860.014V646.872Z" fill="#ED1C24"/>
</g>
<path opacity="0.3" d="M846.016 633.382C860.093 633.382 871.6 644.679 872.442 658.937C872.475 658.384 872.497 657.827 872.497 657.264C872.497 642.227 860.641 630.036 846.017 630.036C831.392 630.036 819.536 642.227 819.536 657.264C819.536 657.826 819.558 658.384 819.591 658.937C820.431 644.679 831.938 633.382 846.016 633.382Z" fill="#1C1F23"/>
<path d="M579.048 134.761C590.94 131.903 598.328 119.673 595.548 107.445C592.769 95.217 580.875 87.621 568.983 90.479C557.09 93.337 549.703 105.567 552.483 117.795C555.262 130.023 567.156 137.619 579.048 134.761Z" fill="#8EDDEB"/>
<path d="M573.989 126.188C566.711 126.188 560.789 120.099 560.789 112.616C560.789 105.133 566.711 99.0439 573.989 99.0439C581.267 99.0439 587.189 105.133 587.189 112.616C587.189 120.099 581.267 126.188 573.989 126.188ZM573.989 103.508C569.106 103.508 565.131 107.593 565.131 112.616C565.131 117.639 569.106 121.724 573.989 121.724C578.873 121.724 582.848 117.639 582.848 112.616C582.848 107.593 578.873 103.508 573.989 103.508Z" fill="#193149"/>
<path d="M573.989 112.616L547.434 115.772L553.306 121.809L536.881 138.698L540.406 142.322L542.752 144.735L545.098 147.147L548.624 150.772L565.048 133.884L570.919 139.921L573.989 112.616Z" fill="#193149"/>
<path d="M438.514 160.746H426.716V157.511H435.367V140.798H438.514V160.746Z" fill="#193149"/>
<path d="M452.55 160.746H440.753V157.511H449.532V152.389H440.753V140.798H452.55V144.033H443.899V149.154H452.55V160.746Z" fill="#193149"/>
<path d="M166.131 417.022H164.081V430.021H166.131V417.022Z" fill="#193149"/>
<path d="M184.423 417.022H182.372V430.021H184.423V417.022Z" fill="#193149"/>
<path d="M171.767 417.022H169.717V430.021H171.767V417.022Z" fill="#193149"/>
<path d="M186.831 430.021H188.881L193.339 417.022H191.289L186.831 430.021Z" fill="#193149"/>
<path d="M188.881 430.021H186.83L182.372 417.022H184.423L188.881 430.021Z" fill="#193149"/>
<path d="M193.339 417.022H191.289V430.021H193.339V417.022Z" fill="#193149"/>
<path d="M171.768 424.575V422.467H164.081V424.575H171.768Z" fill="#193149"/>
<path d="M178.095 417.022H176.045V430.021H178.095V417.022Z" fill="#193149"/>
<path d="M180.914 419.131V417.023H173.226V419.131H180.914Z" fill="#193149"/>
<path d="M196.848 417.022H194.798V430.021H196.848V417.022Z" fill="#193149"/>
<path d="M202.485 430.02V427.912H194.797V430.02H202.485Z" fill="#193149"/>
<path d="M797.696 303.073H794.692V322.115H797.696V303.073Z" fill="#193149"/>
<path d="M801.223 322.115H804.226L810.757 303.073H807.754L801.223 322.115Z" fill="#193149"/>
<path d="M804.226 322.115H801.223L794.692 303.073H797.696L804.226 322.115Z" fill="#193149"/>
<path d="M810.757 303.073H807.754V322.115H810.757V303.073Z" fill="#193149"/>
<path d="M824.155 322.115H812.894V319.026H821.274V314.138H812.894V303.073H824.155V306.162H815.898V311.05H824.155V322.115Z" fill="#193149"/>
<path d="M792.555 322.115H781.294V303.073H792.555V306.162H784.297V319.026H792.555V322.115Z" fill="#193149"/>
<path d="M606.493 169.942H603.884V186.486H606.493V169.942Z" fill="#193149"/>
<path d="M627.164 169.942H624.555V186.486H627.164V169.942Z" fill="#193149"/>
<path d="M611.058 179.555V176.872H603.884V179.555H611.058Z" fill="#193149"/>
<path d="M613.667 172.625V169.942H603.884V172.625H613.667Z" fill="#193149"/>
<path d="M631.729 186.485H634.338V169.942H631.729V186.485Z" fill="#193149"/>
<path d="M634.339 172.625V169.943H624.555V172.625H634.339Z" fill="#193149"/>
<path d="M630.869 179.555V176.872H628.025V179.555H630.869Z" fill="#193149"/>
<path d="M618.133 169.942H615.524V186.486H618.133V169.942Z" fill="#193149"/>
<path d="M622.698 186.485V183.803H615.524V186.485H622.698Z" fill="#193149"/>
<path d="M645.978 186.485H636.196V183.802H643.476V179.555H636.196V169.942H645.978V172.625H638.805V176.872H645.978V186.485Z" fill="#193149"/>
<path d="M650.444 169.942H647.836V186.486H650.444V169.942Z" fill="#193149"/>
<path d="M657.618 169.942H655.009V186.486H657.618V169.942Z" fill="#193149"/>
<path d="M657.619 179.555V176.873H647.835V179.555H657.619Z" fill="#193149"/>
<path d="M181.165 530.645C181.165 530.645 181.137 530.065 181.095 529.196C181.094 528.761 180.982 528.261 180.913 527.722C180.852 527.18 180.707 526.618 180.563 526.055C180.441 525.487 180.245 524.942 180.059 524.432C179.966 524.177 179.876 523.93 179.791 523.697C179.686 523.472 179.587 523.259 179.496 523.063C179.31 522.672 179.164 522.34 179.044 522.118C178.916 521.9 178.843 521.776 178.843 521.776L182.435 519.64C182.435 519.64 182.345 519.486 182.186 519.217C182.02 518.952 181.813 518.553 181.503 518.118C181.188 517.686 180.821 517.183 180.426 516.643C179.993 516.138 179.522 515.606 179.045 515.08C178.534 514.589 178.015 514.105 177.525 513.659C177 513.254 176.51 512.876 176.09 512.552C175.668 512.234 175.279 512.021 175.022 511.85C174.76 511.687 174.61 511.595 174.61 511.595L172.532 515.287C172.532 515.287 172.411 515.212 172.2 515.081C171.984 514.957 171.662 514.807 171.281 514.616C171.091 514.523 170.884 514.42 170.665 514.313C170.437 514.226 170.198 514.133 169.95 514.038C169.454 513.845 168.925 513.644 168.371 513.519C167.824 513.371 167.278 513.221 166.75 513.159C166.226 513.088 165.741 512.973 165.317 512.972C164.473 512.929 163.909 512.9 163.909 512.9V508.634C163.909 508.634 163.211 508.667 162.166 508.719C161.642 508.728 161.037 508.858 160.387 508.95C159.735 509.033 159.055 509.212 158.375 509.397C157.69 509.559 157.03 509.804 156.414 510.043C156.106 510.161 155.806 510.271 155.527 510.389C155.256 510.522 154.998 510.647 154.76 510.762C154.287 510.998 153.889 511.19 153.621 511.343C153.358 511.504 153.208 511.596 153.208 511.596L155.285 515.288C155.285 515.288 155.164 515.363 154.953 515.495C154.746 515.634 154.43 515.8 154.09 516.059C153.751 516.32 153.356 516.625 152.933 516.95C152.541 517.316 152.124 517.707 151.706 518.096C151.326 518.526 150.948 518.956 150.592 519.357C150.275 519.793 149.979 520.199 149.725 520.548C149.473 520.897 149.311 521.222 149.176 521.435C149.048 521.651 148.974 521.776 148.974 521.776L145.383 519.64C145.383 519.64 145.293 519.794 145.136 520.066C144.988 520.341 144.802 520.75 144.571 521.236C144.458 521.481 144.337 521.745 144.209 522.026C144.095 522.312 143.988 522.621 143.872 522.937C143.64 523.571 143.402 524.25 143.244 524.954C143.064 525.652 142.89 526.35 142.809 527.023C142.719 527.691 142.594 528.312 142.584 528.851C142.534 529.927 142.501 530.643 142.501 530.643H146.65C146.65 530.643 146.678 531.222 146.72 532.092C146.721 532.527 146.833 533.027 146.902 533.565C146.962 534.107 147.108 534.669 147.252 535.232C147.374 535.8 147.57 536.345 147.757 536.855C147.85 537.11 147.94 537.357 148.025 537.59C148.13 537.815 148.229 538.028 148.321 538.224C148.507 538.616 148.653 538.947 148.772 539.169C148.9 539.387 148.973 539.51 148.973 539.51L145.382 541.646C145.382 541.646 145.472 541.8 145.631 542.07C145.797 542.335 146.004 542.734 146.314 543.169C146.628 543.601 146.996 544.104 147.389 544.644C147.823 545.149 148.294 545.681 148.77 546.207C149.281 546.697 149.8 547.182 150.291 547.628C150.816 548.033 151.305 548.41 151.725 548.733C152.148 549.052 152.537 549.265 152.794 549.435C153.056 549.599 153.206 549.691 153.206 549.691L155.284 545.999C155.284 545.999 155.405 546.074 155.615 546.205C155.831 546.328 156.153 546.479 156.534 546.67C156.725 546.764 156.932 546.866 157.151 546.974C157.378 547.061 157.618 547.154 157.865 547.249C158.361 547.442 158.891 547.643 159.445 547.768C159.992 547.916 160.537 548.066 161.065 548.128C161.589 548.199 162.075 548.314 162.498 548.315C163.343 548.358 163.907 548.387 163.907 548.387V552.653C163.907 552.653 164.604 552.62 165.65 552.568C166.174 552.559 166.778 552.429 167.428 552.337C168.081 552.254 168.761 552.075 169.44 551.89C170.126 551.728 170.786 551.483 171.401 551.244C171.709 551.126 172.009 551.016 172.288 550.899C172.56 550.766 172.818 550.641 173.056 550.526C173.528 550.29 173.926 550.098 174.194 549.945C174.457 549.784 174.608 549.692 174.608 549.692L172.531 546C172.531 546 172.652 545.925 172.863 545.793C173.07 545.654 173.386 545.488 173.725 545.229C174.064 544.968 174.459 544.663 174.883 544.338C175.275 543.972 175.692 543.581 176.109 543.192C176.489 542.762 176.868 542.332 177.224 541.931C177.541 541.495 177.837 541.089 178.09 540.74C178.342 540.391 178.504 540.065 178.639 539.853C178.767 539.637 178.84 539.512 178.84 539.512L182.432 541.648C182.432 541.648 182.521 541.494 182.678 541.222C182.826 540.947 183.013 540.538 183.243 540.052C183.356 539.807 183.477 539.543 183.606 539.262C183.72 538.976 183.827 538.667 183.943 538.351C184.175 537.717 184.413 537.038 184.571 536.334C184.751 535.636 184.924 534.938 185.005 534.265C185.095 533.597 185.22 532.975 185.23 532.437C185.28 531.361 185.313 530.645 185.313 530.645H181.165ZM163.908 540.731C158.489 540.731 154.097 536.215 154.097 530.643C154.097 525.072 158.489 520.556 163.908 520.556C169.325 520.556 173.718 525.072 173.718 530.643C173.718 536.215 169.325 540.731 163.908 540.731Z" fill="#193149"/>
<path d="M150.241 489.925C150.241 489.925 150.164 489.389 150.048 488.588C149.981 488.188 149.938 487.715 149.827 487.221C149.705 486.728 149.575 486.204 149.445 485.68C149.332 485.15 149.156 484.64 148.98 484.165C148.81 483.688 148.651 483.243 148.517 482.862C148.377 482.483 148.213 482.187 148.119 481.971C148.019 481.757 147.962 481.636 147.962 481.636L151.679 479.801C151.679 479.801 151.42 479.225 150.994 478.38C150.756 477.973 150.476 477.498 150.177 476.989C149.878 476.479 149.556 475.939 149.172 475.441C148.8 474.936 148.43 474.43 148.082 473.955C147.716 473.497 147.34 473.098 147.032 472.743C146.719 472.394 146.458 472.103 146.276 471.9C146.097 471.692 145.974 471.595 145.974 471.595L143.092 474.628C143.092 474.628 142.701 474.266 142.116 473.721C141.556 473.145 140.679 472.54 139.84 471.886C139.413 471.573 138.947 471.315 138.529 471.045C138.103 470.791 137.722 470.52 137.358 470.361C136.646 470.009 136.171 469.775 136.171 469.775L137.875 465.914C137.875 465.914 137.736 465.846 137.492 465.728C137.254 465.598 136.89 465.465 136.456 465.3C136.021 465.138 135.514 464.948 134.971 464.744C134.431 464.53 133.821 464.41 133.226 464.238C132.039 463.88 130.812 463.717 129.897 463.574C129.439 463.5 129.057 463.444 128.787 463.439C128.517 463.422 128.365 463.413 128.365 463.413L128.056 467.641C128.056 467.641 127.53 467.613 126.741 467.571C125.953 467.523 124.902 467.633 123.852 467.67C122.814 467.845 121.762 467.949 120.999 468.153C120.233 468.354 119.723 468.487 119.723 468.487L118.616 464.403C118.616 464.403 118.467 464.443 118.206 464.513C117.942 464.573 117.578 464.704 117.143 464.869C116.273 465.193 115.101 465.6 114.005 466.19C113.455 466.478 112.88 466.719 112.391 467.037C111.896 467.347 111.435 467.634 111.039 467.881C110.645 468.131 110.315 468.334 110.105 468.509C109.889 468.674 109.765 468.769 109.765 468.769L112.171 472.212C112.171 472.212 111.75 472.538 111.119 473.025C110.792 473.255 110.47 473.596 110.101 473.933C109.742 474.281 109.335 474.626 108.974 475.02C108.276 475.83 107.532 476.6 107.092 477.277C106.621 477.929 106.308 478.363 106.308 478.363L102.906 475.969C102.906 475.969 102.804 476.088 102.668 476.328C102.528 476.565 102.327 476.903 102.086 477.308C101.851 477.717 101.559 478.183 101.288 478.707C101.037 479.242 100.769 479.812 100.501 480.384C100.219 480.949 100.006 481.543 99.8102 482.103C99.6133 482.663 99.4304 483.185 99.2724 483.632C99.0156 484.545 98.8716 485.163 98.8716 485.163L102.866 486.215C102.866 486.215 102.833 486.346 102.776 486.575C102.726 486.807 102.621 487.129 102.556 487.529C102.495 487.931 102.425 488.399 102.349 488.9C102.266 489.402 102.191 489.937 102.181 490.479C102.154 491.019 102.126 491.56 102.1 492.067C102.085 492.573 102.133 493.046 102.144 493.451C102.183 494.261 102.209 494.802 102.209 494.802L98.106 495.218C98.106 495.218 98.1939 495.844 98.3269 496.782C98.4038 497.25 98.4598 497.801 98.5887 498.379C98.7307 498.956 98.8816 499.571 99.0325 500.185C99.1695 500.804 99.3724 501.403 99.5773 501.96C99.7772 502.518 99.9641 503.039 100.124 503.486C100.29 503.93 100.478 504.279 100.588 504.533C100.705 504.783 100.772 504.926 100.772 504.926L104.489 503.092C104.489 503.092 104.71 503.584 105.071 504.306C105.276 504.653 105.516 505.058 105.772 505.491C106.025 505.926 106.297 506.39 106.629 506.812C106.946 507.245 107.262 507.678 107.559 508.083C107.872 508.474 108.195 508.812 108.457 509.116C108.724 509.415 108.946 509.664 109.102 509.838C109.253 510.017 109.36 510.098 109.36 510.098L106.478 513.131C106.478 513.131 106.934 513.557 107.618 514.195C108.278 514.862 109.296 515.581 110.282 516.339C110.783 516.705 111.325 517.011 111.815 517.324C112.314 517.624 112.762 517.933 113.187 518.124C114.021 518.536 114.576 518.812 114.576 518.812L116.28 514.95C116.28 514.95 116.399 515.009 116.607 515.111C116.81 515.224 117.122 515.335 117.492 515.474C117.863 515.613 118.296 515.776 118.76 515.95C119.22 516.137 119.742 516.232 120.248 516.38C121.26 516.691 122.308 516.822 123.088 516.948C123.478 517.013 123.804 517.063 124.034 517.064C124.264 517.077 124.395 517.085 124.395 517.085L124.086 521.313C124.086 521.313 124.702 521.346 125.626 521.395C126.549 521.446 127.777 521.332 129.005 521.276C130.22 521.083 131.446 520.948 132.342 520.714C133.238 520.48 133.836 520.324 133.836 520.324L132.729 516.239C132.729 516.239 132.857 516.205 133.079 516.147C133.306 516.098 133.615 515.984 133.986 515.842C134.728 515.562 135.73 515.224 136.663 514.714C137.131 514.466 137.625 514.269 138.04 513.993C138.462 513.729 138.856 513.483 139.193 513.272C139.53 513.06 139.814 512.889 139.991 512.737C140.175 512.596 140.281 512.514 140.281 512.514L142.687 515.957C142.687 515.957 143.179 515.576 143.918 515.004C144.297 514.73 144.679 514.337 145.111 513.943C145.532 513.537 146.004 513.127 146.426 512.668C147.249 511.726 148.11 510.816 148.631 510.029C149.18 509.266 149.546 508.757 149.546 508.757L146.144 506.362C146.144 506.362 146.233 506.261 146.348 506.055C146.466 505.852 146.637 505.564 146.842 505.216C147.042 504.866 147.295 504.469 147.527 504.022C147.741 503.565 147.969 503.076 148.197 502.589C148.441 502.108 148.621 501.599 148.785 501.12C148.954 500.644 149.112 500.199 149.247 499.817C149.463 499.037 149.586 498.51 149.586 498.51L153.58 499.561C153.58 499.561 153.618 499.407 153.685 499.139C153.744 498.869 153.862 498.488 153.94 498.02C154.012 497.549 154.096 497.001 154.186 496.413C154.281 495.825 154.365 495.197 154.382 494.562C154.413 493.929 154.445 493.296 154.474 492.702C154.49 492.109 154.44 491.557 154.426 491.083C154.377 490.137 154.345 489.504 154.345 489.504L150.241 489.925ZM128.068 511.564C117.755 512.611 108.569 504.864 107.551 494.26C106.532 483.656 114.066 474.211 124.379 473.164C134.692 472.116 143.878 479.863 144.896 490.467C145.914 501.071 138.38 510.516 128.068 511.564Z" fill="#193149"/>
<path d="M135.12 491.46C135.605 496.513 132.016 501.014 127.102 501.512C122.188 502.012 117.811 498.32 117.326 493.267C116.841 488.215 120.431 483.714 125.345 483.215C130.258 482.717 134.635 486.408 135.12 491.46Z" fill="#193149"/>
<path d="M144.906 464.651C144.906 464.651 145.176 464.874 145.581 465.21C145.968 465.565 146.57 465.937 147.033 466.476C148.011 467.491 148.988 468.507 148.988 468.507L156.189 461.995C156.189 461.995 154.882 460.63 153.573 459.265C152.938 458.562 152.15 458.027 151.623 457.555C151.076 457.105 150.713 456.805 150.713 456.805L144.906 464.651ZM149.182 466.443C149.182 466.443 148.638 465.875 148.094 465.305C147.835 465.005 147.532 464.756 147.3 464.576C147.073 464.39 146.921 464.265 146.921 464.265L151.083 459.16C151.083 459.16 151.267 459.313 151.544 459.543C151.825 459.767 152.191 460.075 152.512 460.434C153.178 461.124 153.842 461.816 153.842 461.816L149.182 466.443Z" fill="#F26522"/>
<path d="M146.619 453.992L148.108 454.951L142.971 463.278L141.87 462.558L146.619 453.992Z" fill="#F26522"/>
<path d="M134.192 459.5C134.192 459.5 134.533 459.585 135.044 459.712C135.299 459.775 135.597 459.848 135.917 459.927C136.225 460.042 136.553 460.164 136.881 460.288C137.538 460.527 138.196 460.768 138.689 460.948C139.17 461.155 139.475 461.328 139.475 461.328L143.411 452.336C143.411 452.336 142.997 452.112 142.354 451.835C141.699 451.593 140.825 451.27 139.951 450.946C139.514 450.788 139.076 450.629 138.665 450.48C138.244 450.372 137.851 450.271 137.514 450.185C136.84 450.015 136.391 449.903 136.391 449.903L134.192 459.5ZM138.846 459.309C138.846 459.309 138.113 459.041 137.38 458.772C137.014 458.635 136.648 458.499 136.373 458.398C136.088 458.327 135.899 458.278 135.899 458.278L137.662 451.868C137.662 451.868 137.89 451.928 138.232 452.016C138.566 452.137 139.011 452.3 139.455 452.461C140.343 452.788 141.231 453.116 141.231 453.116L138.846 459.309Z" fill="#F26522"/>
<path d="M131.596 449.041L133.315 449.282L131.853 459.028L130.54 458.842L131.596 449.041Z" fill="#F26522"/>
<path d="M118.493 459.81C118.493 459.81 118.838 459.718 119.356 459.583C119.614 459.514 119.916 459.433 120.239 459.346C120.565 459.27 120.92 459.233 121.27 459.173C121.972 459.058 122.675 458.943 123.202 458.858C123.465 458.804 123.687 458.796 123.842 458.789C123.996 458.781 124.085 458.776 124.085 458.776L123.223 448.955C123.223 448.955 123.108 448.963 122.908 448.976C122.708 448.987 122.421 449.002 122.083 449.065C121.406 449.174 120.501 449.318 119.597 449.463C119.147 449.542 118.691 449.6 118.273 449.695C117.857 449.803 117.47 449.904 117.138 449.989C116.473 450.164 116.03 450.28 116.03 450.28L118.493 459.81ZM122.556 457.346C122.556 457.346 121.777 457.472 120.999 457.598C120.61 457.665 120.217 457.71 119.929 457.779C119.643 457.855 119.452 457.906 119.452 457.906L118.037 451.405C118.015 451.301 121.713 450.741 121.713 450.741L122.556 457.346Z" fill="#F26522"/>
<path d="M111.445 451.805L113.063 451.206L116.179 460.531L114.916 460.998L111.445 451.805Z" fill="#F26522"/>
<path d="M126.332 448.765C126.33 448.725 128.061 448.805 128.061 448.805L127.824 458.663C127.824 458.663 126.493 458.587 126.493 458.625L126.332 448.765Z" fill="#F26522"/>
<path d="M107.777 464.917C107.672 464.753 112.646 461.883 112.699 461.992L108.6 453.077C108.6 453.077 108.188 453.278 107.568 453.579C106.935 453.855 106.149 454.336 105.366 454.822C104.581 455.305 103.796 455.787 103.208 456.15C102.651 456.562 102.28 456.837 102.28 456.837L107.777 464.917ZM110.764 461.159C110.764 461.159 110.577 461.229 110.329 461.396C110.075 461.552 109.737 461.761 109.398 461.968C108.72 462.382 108.043 462.797 108.043 462.797L104.543 457.189C104.543 457.189 105.345 456.697 106.146 456.205C106.547 455.961 106.949 455.716 107.25 455.532C107.546 455.339 107.766 455.253 107.766 455.253L110.764 461.159Z" fill="#F26522"/>
<path d="M98.4918 459.916C98.4918 459.916 98.8126 459.62 99.1325 459.323C99.2924 459.175 99.4533 459.027 99.5733 458.916C99.6912 458.802 99.7792 458.738 99.7792 458.738L105.83 466.389C105.83 466.389 105.761 466.438 105.671 466.527C105.578 466.615 105.455 466.731 105.331 466.847C105.083 467.078 104.836 467.31 104.836 467.31L98.4918 459.916Z" fill="#F26522"/>
<path d="M99.2645 473.779C99.2645 473.779 100.109 472.602 100.953 471.423C101.901 470.334 102.849 469.246 102.849 469.246L95.934 462.414C95.934 462.414 94.6865 463.794 93.4961 465.223C92.4106 466.737 91.324 468.251 91.324 468.251L99.2645 473.779ZM100.79 469.207C100.79 469.207 100.247 469.796 99.7433 470.418C99.2765 471.071 98.8107 471.724 98.8107 471.724L93.595 467.771C93.595 467.771 94.1508 466.999 94.7055 466.228C95.3003 465.489 95.941 464.788 95.941 464.788L100.79 469.207Z" fill="#F26522"/>
<path d="M88.8401 472.5C88.8071 472.482 89.6997 470.968 89.6997 470.968L98.0031 475.901C98.0031 475.901 97.2954 477.073 97.3264 477.091L88.8401 472.5Z" fill="#F26522"/>
<path d="M93.6799 489.013C93.6799 489.013 93.7369 488.651 93.8219 488.11C93.9158 487.569 93.9948 486.84 94.1437 486.125C94.4996 484.705 94.8554 483.285 94.8554 483.285L85.6785 480.424C85.6785 480.424 85.2227 482.243 84.7669 484.061C84.4251 485.906 84.1672 487.771 84.1672 487.771L93.6799 489.013ZM93.0192 484.219C93.0192 484.219 92.8213 485.004 92.6224 485.79C92.5185 486.183 92.4895 486.589 92.4345 486.888C92.3885 487.188 92.3575 487.388 92.3575 487.388L85.9674 486.286C85.9674 486.286 86.0044 486.05 86.0593 485.694C86.1243 485.341 86.1673 484.861 86.2862 484.396C86.5171 483.467 86.749 482.538 86.749 482.538L93.0192 484.219Z" fill="#F26522"/>
<path d="M83.8043 492.728L83.9033 490.957L93.48 491.484L93.3931 492.855L83.8043 492.728Z" fill="#F26522"/>
<path d="M86.709 477.416C86.709 477.416 87.2948 475.755 87.3348 475.771L96.1518 479.649C96.1139 479.633 95.6671 480.936 95.6671 480.936L86.709 477.416Z" fill="#F26522"/>
<path d="M94.3507 501.024C94.3507 501.024 94.2677 500.674 94.1437 500.15C94.0808 499.888 94.0058 499.583 93.9268 499.255C93.8839 498.919 93.8379 498.56 93.7919 498.202C93.6949 497.485 93.599 496.768 93.527 496.23C93.477 495.69 93.483 495.324 93.483 495.324L83.9123 495.937C83.9123 495.937 83.9113 496.41 83.9763 497.117C84.0682 497.822 84.1912 498.763 84.3141 499.703C84.3781 500.173 84.4431 500.643 84.503 501.082C84.604 501.517 84.6969 501.922 84.7779 502.269C84.9408 502.964 85.0498 503.427 85.0498 503.427L94.3507 501.024ZM92.0427 496.851C92.0427 496.851 92.1486 497.649 92.2546 498.445C92.3066 498.844 92.3575 499.243 92.3965 499.542C92.4665 499.834 92.5135 500.029 92.5135 500.029L86.1653 501.364C86.1653 501.364 86.1103 501.129 86.0294 500.775C85.9804 500.416 85.9164 499.938 85.8514 499.46C85.7255 498.503 85.5995 497.546 85.5995 497.546L92.0427 496.851Z" fill="#F26522"/>
<path d="M86.5311 508.23L85.9384 506.536L95.0173 503.362L95.4591 504.63L86.5311 508.23Z" fill="#F26522"/>
<path d="M99.5453 511.896C99.4074 512.003 96.3927 507.234 96.5607 507.132L88.0095 511.596C88.0095 511.596 88.2164 512.026 88.5262 512.672C88.8381 513.316 89.3799 514.107 89.8706 514.925C90.3924 515.722 90.8392 516.575 91.314 517.112C91.7558 517.673 92.0497 518.047 92.0497 518.047L99.5453 511.896ZM95.795 509.119L97.4573 511.801L92.2036 515.701L90.1625 512.412L95.795 509.119Z" fill="#F26522"/>
<path d="M95.3812 521.785L94.1198 520.524L101.069 513.728L102.007 514.657L95.3812 521.785Z" fill="#F26522"/>
<path d="M112.391 523.343C112.391 523.343 111.115 522.338 109.84 521.333C108.581 520.321 107.323 519.309 107.323 519.309L101.367 527.037C101.367 527.037 102.67 528.085 103.974 529.134C105.281 530.163 106.587 531.192 106.587 531.192L112.391 523.343ZM107.548 521.521L110.245 523.666L106.304 528.954L103.554 526.766L107.548 521.521Z" fill="#F26522"/>
<path d="M110.042 533.871L108.81 532.919L114.578 525.042L115.794 525.98L110.042 533.871Z" fill="#F26522"/>
<path d="M99.1565 525.209L97.934 524.162L104.096 516.607L105.228 517.575L99.1565 525.209Z" fill="#F26522"/>
<path d="M123.21 531.654L117.996 527.673L112.267 535.581L117.499 539.575L123.21 531.654ZM118.293 529.893L121.055 532.001L117.195 537.353L114.427 535.24L118.293 529.893Z" fill="#F26522"/>
<path d="M125.445 533.363L119.73 541.282L120.959 542.22L126.674 534.301L125.445 533.363Z" fill="#F26522"/>
<path d="M134.419 540.27L129.186 536.22L123.45 544.122L128.612 548.117L134.419 540.27ZM129.486 538.446L132.251 540.584L128.344 545.899L125.603 543.781L129.486 538.446Z" fill="#F26522"/>
<path d="M131.976 550.775L130.782 549.825L136.638 542.016L137.865 542.992L131.976 550.775Z" fill="#F26522"/>
<path d="M148.51 551.774C148.51 551.774 148.217 551.573 147.778 551.273C147.356 550.948 146.817 550.478 146.265 550.028C145.982 549.793 145.699 549.559 145.434 549.339C145.131 549.072 144.848 548.823 144.605 548.61C144.12 548.184 143.797 547.899 143.797 547.899L137.62 555.442C137.62 555.442 137.915 555.701 138.357 556.089C138.578 556.284 138.836 556.51 139.112 556.753C139.439 557.028 139.786 557.32 140.134 557.613C140.854 558.205 141.564 558.81 142.117 559.234C142.691 559.633 143.074 559.899 143.074 559.899L148.51 551.774ZM143.997 550.176C144.073 550.283 146.49 552.27 146.49 552.27L142.593 557.592C142.593 557.592 139.634 555.15 139.75 555.21L143.997 550.176Z" fill="#F26522"/>
<path d="M147.251 562.49L145.727 561.625L150.524 553.087L151.679 553.744L147.251 562.49Z" fill="#F26522"/>
<path d="M135.559 553.694L134.394 552.732L140.374 545.023L141.597 546.032L135.559 553.694Z" fill="#F26522"/>
<path d="M159.132 556.499C159.132 556.499 158.795 556.413 158.29 556.284C157.79 556.131 157.097 556.04 156.446 555.772C155.786 555.54 155.127 555.31 154.632 555.137C154.146 554.936 153.831 554.779 153.831 554.779L150.102 563.863C150.102 563.863 150.522 564.067 151.167 564.331C151.827 564.563 152.706 564.874 153.585 565.183C154.455 565.522 155.384 565.678 156.055 565.872C156.735 566.041 157.188 566.154 157.188 566.154L159.132 556.499ZM154.51 556.781C154.51 556.781 155.246 557.04 155.981 557.298C156.345 557.442 156.72 557.546 157.005 557.606C157.288 557.677 157.476 557.724 157.476 557.724L155.867 564.178C155.867 564.178 155.637 564.119 155.294 564.032C154.947 563.953 154.491 563.825 154.048 563.657C153.155 563.343 152.261 563.029 152.261 563.029L154.51 556.781Z" fill="#F26522"/>
<path d="M162.078 566.83C162.078 566.83 160.315 566.718 160.321 566.675L161.451 556.884C161.449 556.924 162.743 556.994 162.743 556.994L162.078 566.83Z" fill="#F26522"/>
<path d="M170.782 556.27C170.782 556.27 170.451 556.348 169.953 556.465C169.705 556.526 169.415 556.596 169.105 556.672C168.789 556.714 168.45 556.759 168.112 556.805C166.765 557.044 165.39 557.043 165.39 557.043L165.695 566.898C165.695 566.898 167.578 566.887 169.447 566.57C169.915 566.503 170.382 566.436 170.821 566.374C171.253 566.274 171.657 566.18 172.003 566.099C172.695 565.934 173.156 565.824 173.156 565.824L170.782 556.27ZM166.806 558.596C166.806 558.596 167.567 558.492 168.328 558.388C168.709 558.337 169.088 558.287 169.374 558.248C169.654 558.18 169.84 558.135 169.84 558.135L171.113 564.667C171.113 564.667 170.88 564.722 170.53 564.803C170.175 564.852 169.702 564.919 169.229 564.986C168.283 565.11 167.336 565.236 167.336 565.236L166.806 558.596Z" fill="#F26522"/>
<path d="M177.894 564.19C177.894 564.19 177.491 564.391 177.074 564.553C176.652 564.702 176.23 564.851 176.23 564.851L172.984 555.573C172.984 555.573 173.287 555.471 173.589 555.367C173.888 555.252 174.172 555.103 174.172 555.103L177.894 564.19Z" fill="#F26522"/>
<path d="M183.461 548.025C183.461 548.025 183.231 548.285 182.885 548.676C182.526 549.052 182.123 549.63 181.584 550.071C181.076 550.543 180.569 551.016 180.188 551.371C179.796 551.708 179.509 551.898 179.509 551.898L185.349 559.718C185.349 559.718 185.743 559.445 186.287 558.98C186.812 558.494 187.511 557.846 188.211 557.198C188.935 556.575 189.517 555.806 190.005 555.281C190.478 554.741 190.793 554.381 190.793 554.381L183.461 548.025ZM181.518 552.288C181.518 552.288 182.089 551.757 182.659 551.228C182.952 550.971 183.23 550.698 183.412 550.466C183.605 550.245 183.733 550.098 183.733 550.098L188.469 554.644C188.469 554.644 188.309 554.826 188.068 555.098C187.838 555.38 187.496 555.72 187.135 556.042C186.429 556.699 185.721 557.356 185.721 557.356L181.518 552.288Z" fill="#F26522"/>
<path d="M193.718 550.223C193.718 550.223 193.491 550.617 193.263 551.012C193.002 551.383 192.741 551.754 192.741 551.754L184.861 546.134C184.861 546.134 185.052 545.87 185.243 545.606C185.402 545.322 185.561 545.039 185.561 545.039L193.718 550.223Z" fill="#F26522"/>
<path d="M182.717 561.613L181.177 562.541L176.517 553.922L177.62 553.261L182.717 561.613Z" fill="#F26522"/>
<path d="M188.485 537.738C188.485 537.738 188.411 538.079 188.3 538.59C188.181 539.099 187.926 539.747 187.724 540.411C187.542 541.085 187.235 541.707 187.025 542.181C186.818 542.657 186.679 542.974 186.679 542.974L195.284 547.325C195.284 547.325 195.481 546.881 195.777 546.214C196.07 545.546 196.481 544.664 196.755 543.728C197.049 542.801 197.383 541.883 197.555 541.175C197.715 540.464 197.823 539.989 197.823 539.989L188.485 537.738ZM188.634 542.408C188.723 542.445 189.677 539.461 189.677 539.461L195.898 541.321C195.898 541.321 195.595 542.255 195.29 543.19C195.016 544.136 194.593 545.023 194.593 545.023L188.634 542.408Z" fill="#F26522"/>
<path d="M198.628 534.928L198.406 536.742L188.906 535.404L189.073 534.095L198.628 534.928Z" fill="#F26522"/>
<path d="M188.475 525.747C188.475 525.747 188.577 526.091 188.67 526.618C188.748 527.146 188.853 527.85 188.957 528.554C189.076 529.257 189.055 529.968 189.107 530.498C189.14 531.028 189.163 531.381 189.163 531.381L198.751 531.203C198.751 531.203 198.724 530.722 198.684 530C198.623 529.282 198.625 528.309 198.476 527.362C198.334 526.413 198.192 525.463 198.087 524.752C197.96 524.045 197.832 523.586 197.832 523.586L188.475 525.747ZM190.631 529.943C190.631 529.943 190.619 529.744 190.602 529.447C190.584 529.15 190.576 528.752 190.5 528.36C190.382 527.572 190.265 526.785 190.265 526.785L196.646 525.629C196.646 525.629 196.789 526.592 196.932 527.555C197.019 528.034 197.035 528.523 197.059 528.889C197.081 529.255 197.096 529.499 197.096 529.499L190.631 529.943Z" fill="#F26522"/>
<path d="M196.452 518.749L197.015 520.448L187.864 523.397L187.439 522.116L196.452 518.749Z" fill="#F26522"/>
<path d="M181.146 511.415C181.146 511.415 181.414 511.745 181.816 512.239C182.145 512.668 182.582 513.24 183.021 513.812C183.487 514.364 183.841 514.994 184.14 515.444C184.433 515.897 184.628 516.2 184.628 516.2L192.757 510.97C192.757 510.97 192.504 510.575 192.123 509.982C191.735 509.395 191.258 508.582 190.666 507.86C190.096 507.12 189.525 506.38 189.098 505.824C188.718 505.355 188.464 505.044 188.464 505.044L181.146 511.415ZM185.176 514.155C185.176 514.155 184.774 513.46 184.261 512.845C183.774 512.211 183.287 511.577 183.287 511.577L188.266 507.313C188.266 507.313 188.847 508.068 189.427 508.823C190.031 509.56 190.521 510.386 190.521 510.386L185.176 514.155Z" fill="#F26522"/>
<path d="M185.835 501.74L186.77 502.932L179.322 509.144L178.335 507.885L185.835 501.74Z" fill="#F26522"/>
<path d="M194.31 513.764C194.31 513.764 194.517 514.157 194.724 514.549C194.92 514.947 195.087 515.361 195.087 515.361L186.406 519.551C186.406 519.551 186.284 519.235 186.134 518.932C185.974 518.634 185.814 518.336 185.814 518.336L194.31 513.764Z" fill="#F26522"/>
<path d="M172.597 500.235L176.594 505.609L184.16 499.55L180.254 494.297L172.597 500.235ZM176.874 503.369L174.767 500.535L179.93 496.509L182.005 499.301L176.874 503.369Z" fill="#F26522"/>
<path d="M177.693 490.785L178.604 492.04L170.927 497.948L170.006 496.681L177.693 490.785Z" fill="#F26522"/>
<path d="M164.252 488.712L168.129 494.086L175.827 488.206L171.953 482.836L164.252 488.712ZM168.463 491.867L166.412 489.021L171.616 485.054L173.666 487.898L168.463 491.867Z" fill="#F26522"/>
<path d="M169.383 479.283L170.302 480.55L162.607 486.436L161.696 485.179L169.383 479.283Z" fill="#F26522"/>
<path d="M153.329 473.908C153.329 473.908 154.315 475.202 155.302 476.495C156.28 477.805 157.259 479.116 157.259 479.116L164.885 473.139C164.885 473.139 163.883 471.797 162.88 470.455C161.86 469.115 160.839 467.777 160.839 467.777L153.329 473.908ZM157.575 476.903L155.486 474.131L160.585 470.022L162.715 472.848L157.575 476.903Z" fill="#F26522"/>
<path d="M158.065 464.253L159.064 465.508L151.64 471.75L150.701 470.568L158.065 464.253Z" fill="#F26522"/>
<path d="M166.571 475.423L167.496 476.689L159.828 482.61L158.914 481.359L166.571 475.423Z" fill="#F26522"/>
<path d="M902.058 492.422H874.374L874.945 495.746L896.429 517.134L898.701 539.031H902.058H905.414L907.686 517.134L929.171 495.746L929.742 492.422H902.058Z" fill="#193149"/>
<path d="M906.179 574.193H897.937V561.896H906.179V574.193ZM899.877 572.198H904.24V563.89H899.877V572.198Z" fill="#8EDDEB"/>
<path d="M903.027 576.15H901.088V588.446H903.027V576.15Z" fill="#8EDDEB"/>
<path d="M903.027 547.644H901.088V559.94H903.027V547.644Z" fill="#8EDDEB"/>
<path d="M883.414 452.925H875.173V440.628H883.414V452.925ZM877.112 450.931H881.475V442.623H877.112V450.931Z" fill="#8EDDEB"/>
<path d="M880.262 454.882H878.323V467.178H880.262V454.882Z" fill="#8EDDEB"/>
<path d="M911.581 451.308H903.34V439.012H911.581V451.308ZM905.279 449.313H909.641V441.005H905.279V449.313Z" fill="#8EDDEB"/>
<path d="M914.734 489.738H906.493V477.441H914.734V489.738ZM908.433 487.744H912.795V479.436H908.433V487.744Z" fill="#8EDDEB"/>
<path d="M903.997 457.442H902.058V469.738H903.997V457.442Z" fill="#8EDDEB"/>
<path d="M898.836 481.43H890.595V469.134H898.836V481.43ZM892.535 479.436H896.897V471.129H892.535V479.436Z" fill="#ED1C24"/>
<path d="M891.564 454.882H889.625V467.178H891.564V454.882Z" fill="#8EDDEB"/>
<path d="M895.684 440.629H893.745V452.926H895.684V440.629Z" fill="#ED1C24"/>
<path d="M927.004 457.455H918.762V445.159H927.004V457.455ZM920.702 455.461H925.065V447.154H920.702V455.461Z" fill="#8EDDEB"/>
<path d="M872.244 473.891H864.003V461.595H872.244V473.891ZM865.942 471.898H870.305V463.59H865.942V471.898Z" fill="#8EDDEB"/>
<path d="M934.081 485.585H925.84V473.288H934.081V485.585ZM927.779 483.59H932.142V475.282H927.779V483.59Z" fill="#8EDDEB"/>
<path d="M923.853 459.412H921.914V471.708H923.853V459.412Z" fill="#ED1C24"/>
<path d="M938.497 453.264H936.558V465.56H938.497V453.264Z" fill="#8EDDEB"/>
<path d="M885.353 475.282H883.414V487.578H885.353V475.282Z" fill="#8EDDEB"/>
<path opacity="0.1" d="M444.829 945.675C483.797 945.675 515.387 943.154 515.387 940.045C515.387 936.936 483.797 934.415 444.829 934.415C405.86 934.415 374.27 936.936 374.27 940.045C374.27 943.154 405.86 945.675 444.829 945.675Z" fill="#1C1F23"/>
<path opacity="0.1" d="M418.386 943.124C437.019 943.124 452.125 941.746 452.125 940.045C452.125 938.344 437.019 936.966 418.386 936.966C399.752 936.966 384.647 938.344 384.647 940.045C384.647 941.746 399.752 943.124 418.386 943.124Z" fill="#1C1F23"/>
<path opacity="0.1" d="M755.42 940.045C755.42 945.263 702.273 949.493 636.716 949.493C571.157 949.493 518.011 945.263 518.011 940.045C518.011 934.827 571.157 930.597 636.716 930.597C702.274 930.597 755.42 934.826 755.42 940.045Z" fill="#1C1F23"/>
<path opacity="0.1" d="M702.049 943.124C720.26 943.124 735.024 941.746 735.024 940.045C735.024 938.344 720.26 936.966 702.049 936.966C683.837 936.966 669.073 938.344 669.073 940.045C669.073 941.746 683.837 943.124 702.049 943.124Z" fill="#1C1F23"/>
<path opacity="0.1" d="M555.564 943.124C573.775 943.124 588.539 941.746 588.539 940.045C588.539 938.344 573.775 936.966 555.564 936.966C537.352 936.966 522.588 938.344 522.588 940.045C522.588 941.746 537.352 943.124 555.564 943.124Z" fill="#1C1F23"/>
<path d="M464.31 891.443C456.593 892.017 451.246 897.325 451.246 897.325C451.246 897.325 449.072 909.214 442.649 911.347C436.226 913.481 431.715 913.915 429.276 921.776C441.068 925.98 460.338 925.143 465.18 912.911C470.023 900.679 464.31 891.443 464.31 891.443Z" fill="#34A4A9"/>
<path d="M477.335 895.293C475.556 903.422 477.335 906.674 477.335 906.674C477.335 906.674 480.848 921.05 479.464 927.454C475.685 933.147 446.106 947.651 394.555 938.428C393.336 925.117 404.042 913.126 419.458 914.346C434.281 913.737 450.554 922.221 457.818 886.76C466.697 878.306 477.335 895.293 477.335 895.293Z" fill="#44ABB0"/>
<path d="M398.87 729.969C404.602 738.098 399.601 745.489 399.601 745.489L389.888 751.136C389.888 751.136 387.788 755.14 384.033 757.202C380.278 759.264 373.184 755.906 359.328 745.445C342.195 732.51 321.84 710.096 342.739 688.607C346.047 685.206 356.278 689.833 363.69 697.454C363.69 697.454 369.291 725.57 393.074 723.807C396.499 726.515 398.87 729.969 398.87 729.969Z" fill="#44ABB0"/>
<path d="M369.427 711.233C370.806 713.457 368.928 714.93 370.905 717.166C372.881 719.402 383.344 727.813 391.947 725.589C395.511 726.312 398.871 732.814 398.871 732.814C398.871 732.814 397.488 724.036 393.732 721.718C389.779 722.856 381.479 720.315 377.328 716.963C373.177 713.61 371.507 710.077 369.427 711.233Z" fill="#34A4A9"/>
<path d="M497.494 681.906C488.754 702.853 488.008 711.983 452.827 722.145C427.176 729.554 403.835 741.231 393.074 747.013C389.077 749.161 376.537 738.403 390.372 727.429C404.207 716.455 447.65 686.784 470.793 655.893C480.498 641.668 486.152 638.845 492.417 638.845C498.681 638.846 504.425 665.296 497.494 681.906Z" fill="#25465B"/>
<path d="M393.34 723.247C397.15 721.918 394.084 727.404 392.821 728.852C391.558 730.3 388.889 733.121 381.329 733.197C373.769 733.273 362.948 721.913 362.948 721.913C362.948 721.913 368.521 719.186 369.929 714.46C374.228 717.89 383.19 726.785 393.34 723.247Z" fill="#44ABB0"/>
<path d="M555.8 443.219C539.07 462.306 533.564 483.458 521.706 503.273C509.847 523.087 497.1 535.53 490.281 541.378C483.462 547.226 489.038 588.226 508.309 588.226C517.657 588.226 529.117 568.914 548.487 549.811C567.856 530.707 581.691 508.759 581.691 483.153C581.691 457.547 565.492 432.161 555.8 443.219Z" fill="#7B5567"/>
<path d="M508.309 588.225C508.309 588.225 439.622 588.225 431.238 588.225C422.854 588.225 423.074 570.133 429.523 570.133C435.972 570.133 450.367 561.857 464.988 553.56C479.608 545.263 486.622 541.377 495.007 541.377C503.391 541.377 511.183 549.22 514.234 560.784C519.273 579.888 511.856 588.225 508.309 588.225Z" fill="#7B5567"/>
<path d="M768.323 405.647C768.323 405.647 743.671 416.697 724.983 416.697C706.296 416.697 681.233 406.203 675.254 400.055C673.248 397.618 669.44 397.416 667.166 399.63C665.953 400.812 664.857 401.889 664.475 402.296C663.586 403.337 662.739 404.405 661.775 405.6C660.774 406.768 659.97 408.115 658.999 409.507C658.004 410.895 657.191 412.429 656.27 414.027C652.676 420.448 649.667 428.411 647.309 437.388C646.057 441.881 645.217 446.672 644.258 451.667C643.446 456.67 642.668 461.915 642.175 467.367C641.015 478.262 640.477 489.986 640.249 502.315C639.95 514.643 640.217 527.585 640.339 540.923C640.472 547.582 640.607 554.352 640.744 561.206C640.78 562.915 640.817 564.63 640.853 566.35C640.859 568.065 640.865 569.787 640.87 571.511C640.866 574.962 640.863 578.431 640.859 581.913C640.796 588.869 640.796 595.875 640.457 602.886C640.126 609.896 639.678 616.913 639.027 623.886C638.347 630.85 637.497 637.782 636.224 644.548C634.956 651.31 633.323 657.942 630.983 664.135C628.663 670.317 625.583 676.094 621.443 680.65C620.932 681.223 620.39 681.76 619.866 682.311C619.32 682.843 618.737 683.326 618.183 683.835L616.321 685.332C615.954 685.645 615.716 685.756 615.415 685.973L614.565 686.554C612.101 688.182 609.349 689.621 606.507 690.787C600.799 693.153 594.648 694.586 588.5 695.729C582.342 696.863 576.107 697.397 570 697.896C557.746 698.775 545.896 698.604 534.789 698.362C534.092 698.347 533.4 698.33 532.711 698.315L531.678 698.291L530.472 698.282C529.101 698.272 527.747 698.262 526.407 698.253C523.507 698.345 520.476 698.408 517.704 698.689C512.084 699.168 506.581 700.003 501.353 701.602C496.145 703.171 491.242 705.321 487.076 708.057C486.022 708.708 485.079 709.489 484.122 710.196C483.651 710.559 483.183 710.917 482.721 711.272C482.28 711.647 481.871 712.046 481.455 712.427C480.634 713.203 479.832 713.962 479.05 714.702C478.333 715.484 477.668 716.27 477.011 717.031C475.637 718.531 474.635 720.072 473.631 721.504C472.578 722.927 471.878 724.325 471.133 725.61C470.773 726.255 470.426 726.877 470.093 727.474C469.816 728.076 469.551 728.655 469.297 729.207C468.796 730.316 468.341 731.323 467.934 732.224C467.827 732.509 467.724 732.782 467.625 733.046C466.996 734.726 467.437 736.498 468.578 737.745L468.572 737.756C468.651 737.835 468.747 737.916 468.834 737.996C468.947 738.103 469.054 738.212 469.179 738.309C482.368 749.541 564.301 773.506 571.905 765.687C571.905 748.668 587.225 728.649 662.935 728.649C738.645 728.649 733.482 646.545 733.482 583.665C733.482 495.584 777.723 445.962 777.723 445.962C777.723 445.962 779.557 429.424 768.323 405.647Z" fill="#CCDDEB"/>
<path d="M636.241 704.16C582.205 710.142 518.872 716.031 507.903 717.251C496.934 718.47 472.707 700.586 483.759 689.223C494.809 677.861 551.353 659.654 595.231 649.29C639.107 638.925 649.781 662.398 648.891 678.859C648.001 695.32 643.76 703.327 636.241 704.16Z" fill="#25465B"/>
<path d="M167.501 741.965V606.917H153.27V721.437C157.828 728.422 162.575 735.267 167.501 741.965Z" fill="#193149"/>
<path d="M171.453 606.917H149.317V620.533H171.453V606.917Z" fill="#193149"/>
<path d="M312.932 868.654V606.917H298.702V860.654C303.392 863.409 308.136 866.077 312.932 868.654Z" fill="#193149"/>
<path d="M316.886 606.917H294.75V620.533H316.886V606.917Z" fill="#193149"/>
<path d="M657.784 424.425C688.604 430.743 715.568 509.368 715.568 563.02C715.568 616.671 705.812 660.785 705.812 660.785L595.23 649.289C595.23 649.289 603.827 631.913 603.827 601.125C603.827 578.262 569.289 556.161 558.171 544.73C547.054 533.299 538.456 461.052 555.8 443.219C573.143 425.386 588.411 410.205 657.784 424.425Z" fill="#7B5567"/>
<path d="M668.26 432.346C648.495 432.346 636.241 462.017 636.241 534.365C636.241 558.752 643.356 588.225 660.749 588.225C671.817 588.225 694.744 520.14 696.325 494.532C697.905 468.927 675.77 432.346 668.26 432.346Z" fill="#7B5567"/>
<path d="M660.749 588.225C660.749 588.225 576.552 588.225 566.275 588.225C555.997 588.225 558.369 565.153 566.275 565.153C574.18 565.153 594.785 561.8 607.646 550.998C623.064 538.049 637.567 538.023 639.889 538.023C650.167 538.023 660.038 547.778 664.346 559.971C668.654 572.165 665.097 588.225 660.749 588.225Z" fill="#7B5567"/>
<path d="M705.812 660.785C695.14 703.855 678.142 717.191 652.843 717.191C627.545 717.191 516.865 681.906 497.495 681.906C483.265 681.906 480.6 647.188 487.154 640.449C493.708 633.709 624.383 640.449 655.215 644.919C686.048 649.39 705.812 660.785 705.812 660.785Z" fill="#25465B"/>
<path d="M625.618 730.275H602.46V762.791H625.618V730.275Z" fill="#193149"/>
<path d="M625.618 860.486H602.46V893.002H625.618V860.486Z" fill="#193149"/>
<path d="M620.429 762.791H607.647V860.486H620.429V762.791Z" fill="#CCDDEB"/>
<path d="M768.323 405.647C770.297 408.243 769.938 411.976 767.509 414.126C765.781 415.657 764.116 417.149 763.762 417.528C762.936 418.345 762.226 419.421 761.372 420.47C760.501 421.506 759.736 422.765 758.867 424.045C755.482 429.232 751.998 436.22 749.23 444.848C747.754 449.122 746.536 453.83 745.294 458.81C744.166 463.825 743.032 469.131 742.145 474.747C741.209 480.351 740.483 486.242 739.852 492.364C739.204 498.482 738.695 504.837 738.278 511.383C737.44 524.475 736.956 538.341 736.875 552.705C736.733 567.064 736.797 581.942 736.786 597.073C736.696 612.207 736.499 627.607 735.5 643.034C734.963 650.746 734.252 658.466 733.084 666.132C731.916 673.793 730.363 681.423 727.958 688.821C725.556 696.194 722.373 703.44 717.685 709.725C717.104 710.51 716.476 711.262 715.872 712.027C715.252 712.781 714.579 713.49 713.933 714.22L713.688 714.491L713.372 714.803L712.889 715.28L711.923 716.233C711.258 716.873 710.443 717.55 709.707 718.2C706.724 720.689 703.56 722.752 700.288 724.523C693.74 728.041 686.904 730.407 680.164 732.095C673.417 733.807 666.741 734.864 660.25 735.652C647.259 737.174 634.978 737.446 623.751 737.619C623.051 737.63 622.353 737.639 621.659 737.649C620.993 737.663 620.33 737.677 619.671 737.691C618.302 737.733 616.947 737.775 615.609 737.817C613.036 737.995 610.605 738.109 608.182 738.452C603.368 739.039 598.898 739.932 595.017 741.36C591.131 742.766 587.743 744.508 584.987 746.589C584.278 747.082 583.679 747.688 583.038 748.208C582.724 748.476 582.412 748.74 582.104 749.001C582.098 749.007 582.092 749.012 582.086 749.018C581.255 749.896 580.454 750.744 579.68 751.561C579.216 752.169 578.764 752.76 578.325 753.336C574.842 758 573.123 762.553 571.939 765.589C571.929 765.621 571.919 765.652 571.909 765.684C571.076 768.334 568.338 769.813 565.74 769.02L559.847 767.218C557.104 766.38 555.61 763.35 556.568 760.577C556.667 760.292 556.77 759.995 556.877 759.688C557.285 758.711 557.74 757.622 558.24 756.421C558.494 755.823 558.76 755.198 559.037 754.546C559.37 753.899 559.717 753.227 560.078 752.528C560.822 751.138 561.522 749.625 562.576 748.084C563.579 746.534 564.582 744.868 565.955 743.243C566.614 742.421 567.277 741.569 567.994 740.723C568.777 739.922 569.578 739.102 570.399 738.262C570.816 737.848 571.225 737.417 571.665 737.011C572.127 736.626 572.594 736.239 573.067 735.846C574.023 735.082 574.966 734.236 576.021 733.532C580.187 730.572 585.09 728.245 590.297 726.546C595.526 724.817 601.028 723.912 606.649 723.394C609.421 723.089 612.452 723.021 615.351 722.922C616.69 722.932 618.046 722.942 619.416 722.953L620.623 722.962L621.655 722.988C622.344 723.005 623.038 723.022 623.733 723.039C634.84 723.301 646.69 723.485 658.945 722.534C665.051 721.993 671.286 721.415 677.444 720.188C683.593 718.952 689.742 717.401 695.451 714.84C698.293 713.578 701.045 712.02 703.51 710.26L704.359 709.632C704.66 709.397 704.898 709.276 705.265 708.938L707.127 707.318C707.682 706.767 708.266 706.244 708.811 705.67C709.334 705.072 709.876 704.492 710.388 703.872C714.527 698.942 717.608 692.69 719.928 685.999C722.268 679.298 723.901 672.121 725.168 664.803C726.442 657.48 727.291 649.978 727.971 642.441C728.623 634.896 729.071 627.301 729.4 619.716C729.739 612.129 729.739 604.547 729.802 597.02C729.806 593.251 729.809 589.497 729.813 585.762C729.807 583.896 729.802 582.034 729.796 580.176C729.76 578.315 729.723 576.46 729.687 574.61C729.55 567.193 729.415 559.867 729.282 552.661C729.16 538.225 728.893 524.22 729.192 510.878C729.42 497.537 729.958 484.848 731.119 473.058C731.612 467.157 732.39 461.482 733.202 456.067C734.16 450.661 735.001 445.477 736.252 440.614C738.611 430.899 741.62 422.28 745.213 415.333C746.135 413.603 746.948 411.943 747.942 410.441C748.914 408.936 749.717 407.477 750.719 406.214C751.682 404.921 752.53 403.766 753.419 402.638C753.801 402.197 754.896 401.032 756.109 399.753C758.384 397.358 762.193 397.576 764.198 400.213L768.323 405.647Z" fill="#193149"/>
<path d="M706.832 931.215C708.246 925.028 704.514 918.834 698.496 917.38C692.479 915.927 686.455 919.764 685.041 925.952C683.628 932.139 687.36 938.333 693.377 939.787C699.394 941.24 705.418 937.403 706.832 931.215Z" fill="#193149"/>
<path d="M698.883 935.899C702.848 934.2 704.723 929.519 703.072 925.443C701.421 921.366 696.867 919.438 692.902 921.136C688.937 922.834 687.062 927.516 688.713 931.592C690.364 935.669 694.917 937.597 698.883 935.899Z" fill="#8EDDEB"/>
<path d="M625.618 879.692L704.033 907.737V916.577L613.924 893.002L617.234 879.692H625.618Z" fill="#193149"/>
<path d="M704.033 916.577L697.888 931.47H693.206V913.744L704.033 916.577Z" fill="#193149"/>
<path d="M534.761 939.708C540.778 938.254 544.51 932.06 543.097 925.873C541.683 919.685 535.659 915.848 529.642 917.302C523.624 918.755 519.892 924.949 521.306 931.137C522.719 937.324 528.743 941.161 534.761 939.708Z" fill="#193149"/>
<path d="M537.296 934.518C540.537 931.62 540.879 926.569 538.061 923.237C535.243 919.905 530.331 919.552 527.09 922.45C523.849 925.348 523.506 930.399 526.324 933.731C529.143 937.064 534.055 937.416 537.296 934.518Z" fill="#8EDDEB"/>
<path d="M602.46 879.692L524.045 907.737V916.577L614.154 893.002L610.843 879.692H602.46Z" fill="#193149"/>
<path d="M524.045 916.577L530.189 931.47H534.871V913.744L524.045 916.577Z" fill="#193149"/>
<path d="M615.337 929.221H612.511C610.742 929.221 609.308 930.696 609.308 932.515V948.944C609.308 950.763 610.742 952.238 612.511 952.238H615.337C617.106 952.238 618.541 950.763 618.541 948.944V932.515C618.541 930.696 617.106 929.221 615.337 929.221Z" fill="#193149"/>
<path d="M615.917 929.221H611.93V952.238H615.917V929.221Z" fill="#8EDDEB"/>
<path d="M613.924 879.692H607.418V938.292L609.307 940.73V928.377H618.541V940.73L620.43 938.292V879.692H613.924Z" fill="#193149"/>
<path d="M631.102 420.042C632.584 424.624 622.951 457.546 589.26 457.546C580.397 457.546 568.904 430.415 559.535 430.415C555.799 430.415 556.688 412.125 578.33 400.846C599.973 389.567 610.942 389.567 617.167 395.968C618.255 400.235 617.032 403.577 621.169 411.515C625.308 419.454 631.102 420.042 631.102 420.042Z" fill="#7B5567"/>
<path d="M575.129 425.336C581.696 424.18 589.646 421.396 595.823 417.737C600.083 415.211 604.229 411.678 607.033 408.112C593.999 395.721 589.597 385.92 589.597 361.523C589.597 343.538 543.052 372.802 547.203 387.739C550.294 398.865 566.871 412.868 575.129 425.336Z" fill="#FCBD92"/>
<path d="M593.788 374.86C606.477 359.434 614.738 355.654 614.738 333.097C614.738 310.539 600.607 300.049 586.376 294.382C572.603 288.898 554.951 286.152 533.679 294.703C519.601 300.363 523.624 340.615 531.134 364.596C538.645 388.577 572.64 400.567 593.788 374.86Z" fill="#FCBD92"/>
<path d="M591.698 369.193C587.959 383.957 584.941 390.231 567.722 399.921C550.504 409.611 539.535 414.488 531.233 413.878C522.932 413.269 516.114 413.878 516.114 409C516.114 404.122 516.559 389.338 510.333 373.944C504.107 358.55 512.161 357.685 508.998 348.134C505.836 338.583 505.046 337.363 507.417 332.283C509.789 327.202 517.497 303.832 526.786 297.937C536.076 292.044 558.607 287.573 575.605 295.296C592.602 303.02 603.654 321.968 591.698 369.193Z" fill="#FCBD92"/>
<path d="M614.738 323.365C616.172 309.167 613.207 306.271 603.868 295.906C594.529 285.542 583.115 286.913 583.115 286.913C583.115 286.913 580.976 280.664 569.668 277.616C558.36 274.567 551.097 273.195 548.132 269.538C542.944 269.538 540.572 274.415 540.572 274.415C540.572 274.415 535.533 271.824 527.676 271.824C522.339 271.824 518.189 278.917 517.892 289.24C511.963 289.657 507.516 295.449 510.925 307.947C513.149 306.27 515.076 305.343 515.076 305.343C515.076 305.343 520.269 293.467 529.753 301.698C537.162 296.058 546.798 302.917 555.543 300.022C564.289 297.125 564.93 305.864 564.93 305.864L614.738 323.365Z" fill="#252D3A"/>
<path d="M585.487 361.955C585.487 361.955 586.278 350.676 584.697 345.748C583.115 340.819 575.483 336.408 569.52 330.277C569.52 321.716 570.862 309.929 564.932 305.864C579.756 303.223 602.584 310.844 615.529 324.155C619.976 328.727 618.399 344.731 618.399 344.731C618.399 344.731 615.534 346.932 612.762 351.437C602.648 367.878 606.877 370.551 599.634 374.097C596.901 365.41 585.487 361.955 585.487 361.955Z" fill="#252D3A"/>
<path d="M553.669 331.369C553.669 331.369 537.804 326.796 530.146 321.005C525.952 324.053 527.411 329.693 527.411 329.693C527.411 329.693 533.064 334.113 550.935 334.113C554.763 334.113 553.669 331.369 553.669 331.369Z" fill="#252D3A"/>
<path d="M518.486 323.799C517.449 328.067 518.486 331.572 518.486 331.572C518.486 331.572 507.764 332.893 505.293 339.251C504.255 337.364 505.901 332.882 505.901 332.882C508.421 325.414 518.486 323.799 518.486 323.799Z" fill="#252D3A"/>
<path d="M591.745 375.616C598.921 375.616 601.871 371.215 605.747 360.315C609.623 349.416 605.788 346.534 602.343 344.298C598.896 342.063 593.453 346.676 593.453 346.676L590.042 374.86C590.04 374.86 590.437 375.616 591.745 375.616Z" fill="#FCBD92"/>
<path d="M520.28 342.432L500.401 343.687V346.408L500.796 347.221C500.796 347.221 501.29 355.478 502.278 356.697C503.267 357.916 515.631 358.186 517.806 355.544C519.981 352.903 517.628 345.901 520.28 345.901V342.432Z" fill="#252D3A"/>
<path d="M528.862 368.153C530.395 369.728 529.653 371.202 528.862 373.539C528.072 375.876 526.166 375.672 523.809 375.063C521.452 374.454 513.643 376.381 509.197 371.809C506.975 369.524 509.889 367.747 512.063 364.292C514.237 360.837 513.941 358.805 517.498 353.928C521.056 349.05 520.757 344.579 519.079 341.938C522.143 339.093 526.097 340.21 527.776 341.938C528.171 349.152 528.862 368.153 528.862 368.153Z" fill="#FCBD92"/>
<path d="M518.609 342.538L552.876 339.918L556.566 340.731V345.682L554.51 345.825C554.51 345.825 552.929 353.649 550.755 355.885C548.581 358.12 533.407 357.585 529.751 356.773C526.095 355.961 524.843 345.902 520.281 345.902L518.609 342.538Z" fill="#252D3A"/>
<path d="M549.983 343.234C549.983 346.892 549.965 353.953 547.296 354.359C544.628 354.765 532.717 355.858 529.949 354.131C527.182 352.404 525.906 345.361 526.446 344.717C526.984 344.071 549.983 343.234 549.983 343.234Z" fill="#8EDDEB"/>
<path d="M593.452 346.676L556.566 340.73V345.681L593.306 347.875L593.452 346.676Z" fill="#535363"/>
<path d="M515.337 345.315C510.614 345.019 502.254 345.976 502.254 345.976C502.254 345.976 502.551 354.714 503.811 355.4C505.07 356.086 516.496 355.618 516.929 353.597C517.24 352.145 516.511 348.519 516.212 346.611C516.095 345.861 515.572 345.33 515.337 345.315Z" fill="#8EDDEB"/>
<path opacity="0.15" d="M552.094 298.212C555.989 298.347 555.347 287.443 550.716 281.831C546.086 276.219 545.755 272.479 546.747 270.268C544.762 271.118 543.77 274.519 544.266 276.05C543.273 275.88 542.901 273.754 543.191 273.244C542.117 273.499 540.752 275.114 540.669 277.409C538.23 274.902 530.046 272.084 525.856 272.905C521.666 273.725 518.386 284.721 519.544 290.928C520.701 297.135 528.639 298.494 534.013 294.838C530.954 295.859 525.91 294.838 524.67 289.992C523.43 285.146 527.316 280.725 531.285 281.916C535.255 283.106 539.058 289.057 538.81 292.458C538.562 295.859 536.881 296.88 536.881 296.88C536.881 296.88 541.622 297.73 543.193 295.18C544.764 292.629 545.508 288.889 543.689 284.382C543.689 284.382 551.296 288.973 547.41 297.56C549.477 296.199 552.394 293.982 551.391 287.014C553.279 287.783 555.016 297.645 552.094 298.212Z" fill="#FFCBE1"/>
<path opacity="0.15" d="M516.797 292.365C513.985 294.348 511.891 300.244 511.946 305.344C509.19 300.016 510.623 290.324 517.404 290.381C517.569 291.458 516.797 292.365 516.797 292.365Z" fill="#FFCBE1"/>
<path d="M94.5275 588.225C96.1528 594.511 97.906 600.742 99.7882 606.916H631.102V588.225H94.5275Z" fill="#193149"/>
<path d="M375.667 566.373C378.008 565.514 383.597 562.029 385.153 562.258C386.71 562.486 389.115 564.664 388.097 567.577C387.081 570.49 384.388 569.876 381.324 571.211C378.26 572.547 376.915 572.185 375.667 570.725C374.418 569.263 373.605 567.131 375.667 566.373Z" fill="#FCBD92"/>
<path d="M375.667 566.373C373.719 566.482 372.554 569.342 372.257 569.991C371.96 570.641 371.762 572.394 370.083 574.833C368.403 577.272 371.337 578.381 373.872 577.94C376.408 577.5 377.74 575.747 378.741 573.004C379.744 570.26 379.744 566.144 375.667 566.373Z" fill="#FCBD92"/>
<path d="M364.412 588.225C364.412 575.924 376.266 568.507 389.027 568.507C397.455 568.507 412.459 576.646 412.459 588.225H364.412Z" fill="#193149"/>
<path d="M411.267 571.539C405.089 570.228 401.735 569.185 400.305 567.473C398.875 565.762 395.13 566.992 390.568 563.408C388.594 561.857 386.483 563.243 383.351 564.341C380.22 565.44 379.062 565.657 378.381 566.646C377.701 567.633 376.113 568.247 374.07 569.477C373.594 571.777 375.191 572.543 377.369 573.131C379.548 573.72 381.475 573.367 382.973 572.351C384.471 571.334 386.22 570.109 387.377 569.575C389.107 570.725 394.381 571.754 395.812 573.091C397.242 574.428 398.195 576.194 398.943 577.638C399.692 579.082 401.394 581.222 405.82 581.222C410.246 581.222 417.463 581.222 419.71 581.222C421.957 581.222 422.638 573.251 417.395 573.251C414.127 573.25 413.786 572.073 411.267 571.539Z" fill="#FCBD92"/>
<path d="M412.903 572.065C421.377 574.146 424.287 573.841 429.031 572.927C433.775 572.013 435.108 580.686 434.219 583.36C433.329 586.035 431.106 588.225 429.919 588.225C428.733 588.225 420.048 585.883 414.236 586.644C408.425 587.406 405.312 583.499 405.312 578.365C405.313 573.232 409.821 571.309 412.903 572.065Z" fill="#FCBD92"/>
<path d="M411.92 571.706C407.762 570.625 407.08 571.438 404.424 572.927C401.769 574.417 402.546 575.219 398.346 578.366C393.878 581.715 390.581 579.149 387.006 577.957C383.432 576.766 381.547 577.385 379.402 578.551C377.257 579.718 377.36 582.597 377.666 583.788C377.972 584.979 380.832 585.377 382.976 585.774C385.121 586.17 386.858 588.057 391.555 587.958C396.253 587.858 400.339 587.66 404.935 588.256C409.53 588.851 415.045 588.721 418.109 586.155C421.172 583.589 421.377 578.458 421.377 576.111C421.377 574.515 416.083 572.789 411.92 571.706Z" fill="#FCBD92"/>
<path d="M483.758 689.223C468.436 702.508 467.848 840.829 455.198 901.39C468.242 909.519 474.962 901.39 474.962 901.39C474.962 901.39 476.939 853.226 495.122 810.243C513.305 767.262 517.816 752.384 512.318 727.429C506.819 702.473 502.039 673.372 483.758 689.223Z" fill="#25465B"/>
<path d="M442.748 920.29C442.748 920.29 442.254 917.547 438.004 915.311C443.537 914.6 453.123 907.69 453.123 892.855C453.123 889.604 460.832 894.989 461.029 900.273C461.228 905.556 461.327 920.29 442.748 920.29Z" fill="#44ABB0"/>
<path d="M388.294 728.751C388.294 741.148 397.017 744.908 399.379 743.717C399.859 744.348 399.602 745.489 399.602 745.489C399.602 745.489 391.454 750.699 388.294 751.003C385.134 751.308 365.073 746.125 350.745 726.514C354.895 722.449 361.022 720.316 363.888 721.636C366.754 722.958 375.052 735.253 388.294 728.751Z" fill="#34A4A9"/>
<path d="M383.453 734.817C383.014 734.817 382.641 734.473 382.599 734.015C382.221 729.868 383.289 726.009 385.527 723.428C386.842 721.913 388.401 721.061 389.918 721.028C389.924 721.028 389.93 721.028 389.937 721.028C390.403 721.028 390.787 721.411 390.797 721.892C390.807 722.38 390.43 722.785 389.955 722.795C388.936 722.817 387.79 723.477 386.812 724.604C384.918 726.787 383.984 730.243 384.312 733.849C384.357 734.335 384.009 734.766 383.536 734.811C383.507 734.815 383.48 734.817 383.453 734.817Z" fill="#25465B"/>
<path d="M377.388 734.629C377.016 734.629 376.714 734.322 376.71 733.939C376.664 728.846 378.949 722.728 381.699 720.579C382.829 719.694 383.757 719.709 384.336 719.885C384.696 719.991 384.903 720.376 384.8 720.747C384.697 721.116 384.32 721.332 383.962 721.224C383.55 721.104 383.067 721.261 382.519 721.689C380.375 723.364 378.02 728.802 378.066 733.928C378.07 734.313 377.769 734.627 377.395 734.631C377.392 734.629 377.39 734.629 377.388 734.629Z" fill="#25465B"/>
<path d="M372.289 733.083C372.238 733.083 372.187 733.077 372.136 733.068C371.672 732.981 371.365 732.525 371.448 732.049C373.02 723.115 376.511 718.145 381.049 718.364C381.519 718.388 381.882 718.801 381.858 719.285C381.834 719.77 381.451 720.121 380.962 720.117C377.464 719.925 374.508 724.509 373.128 732.36C373.053 732.785 372.693 733.083 372.289 733.083Z" fill="#25465B"/>
<path d="M367.186 729.448C367.084 729.448 366.98 729.425 366.884 729.374C366.549 729.202 366.413 728.782 366.58 728.438C369.656 722.109 374.191 715.893 377.404 716.269C377.776 716.313 378.043 716.659 378.001 717.042C377.959 717.424 377.621 717.707 377.25 717.656C375.435 717.468 371.396 721.651 367.793 729.062C367.675 729.307 367.435 729.448 367.186 729.448Z" fill="#25465B"/>
<path d="M362.948 725.812C362.785 725.812 362.62 725.766 362.474 725.667C362.074 725.398 361.962 724.846 362.225 724.434C365.467 719.343 368.864 714.701 374.725 713.825C375.194 713.758 375.639 714.093 375.708 714.578C375.777 715.066 375.448 715.518 374.974 715.59C370.312 716.286 367.3 719.717 363.675 725.41C363.508 725.67 363.23 725.812 362.948 725.812Z" fill="#25465B"/>
<path d="M442.352 931.061C443.044 924.151 438.992 918.969 438.992 918.969C438.992 918.969 452.629 917.727 455.199 912.099C457.768 906.47 457.966 898.545 457.966 898.545C457.966 898.545 471.999 900.069 477.335 895.293C476.562 901.079 476.446 902.305 477.533 905.861C478.621 909.417 478.853 914.26 478.853 914.26C478.853 914.26 473.382 928.317 442.352 931.061Z" fill="#34A4A9"/>
<path d="M460.658 905.023C460.649 905.023 460.638 905.023 460.629 905.023C454.956 904.826 451.456 903.804 450.223 901.989C449.694 901.209 449.577 900.286 449.887 899.322C450.035 898.857 450.518 898.602 450.972 898.759C451.424 898.911 451.668 899.412 451.52 899.875C451.38 900.314 451.415 900.655 451.635 900.978C452.489 902.237 455.873 903.089 460.688 903.258C461.163 903.274 461.534 903.683 461.518 904.171C461.5 904.647 461.12 905.023 460.658 905.023Z" fill="#25465B"/>
<path d="M459.719 911.018C459.696 911.018 459.673 911.018 459.648 911.016C451.561 910.346 448.063 906.953 448.236 904.085C448.266 903.597 448.676 903.235 449.148 903.258C449.622 903.288 449.982 903.708 449.953 904.195C449.854 905.829 452.435 908.646 459.787 909.255C460.26 909.294 460.613 909.72 460.575 910.207C460.539 910.669 460.163 911.018 459.719 911.018Z" fill="#25465B"/>
<path d="M456.933 916.404C456.799 916.404 456.662 916.37 456.534 916.301C449.505 912.493 446.91 910.398 446.248 907.995C446.118 907.525 446.384 907.036 446.841 906.904C447.292 906.772 447.774 907.045 447.901 907.514C448.4 909.325 450.956 911.283 457.334 914.737C457.755 914.964 457.916 915.5 457.694 915.931C457.541 916.232 457.242 916.404 456.933 916.404Z" fill="#25465B"/>
<path d="M451.649 919.973C451.337 919.973 451.036 919.799 450.883 919.493C448.181 914.105 444.539 911.908 443.587 911.758C443.119 911.683 442.797 911.232 442.869 910.75C442.942 910.267 443.389 909.933 443.849 910.011C445.283 910.238 449.43 912.737 452.412 918.685C452.63 919.118 452.464 919.652 452.042 919.876C451.915 919.942 451.781 919.973 451.649 919.973Z" fill="#25465B"/>
<path d="M444.828 922.31C444.384 922.31 444.008 921.959 443.972 921.497C443.669 917.598 442.042 914.267 440.644 913.3C440.402 913.134 440.183 913.054 440.057 913.097C439.608 913.241 439.121 912.984 438.977 912.52C438.833 912.054 439.085 911.558 439.538 911.41C439.99 911.262 440.715 911.219 441.603 911.832C443.358 913.047 445.326 916.707 445.686 921.355C445.724 921.842 445.372 922.267 444.898 922.307C444.874 922.31 444.851 922.31 444.828 922.31Z" fill="#25465B"/>
<path d="M564.215 568.507C557.03 568.507 557.663 564.594 547.583 559.717C537.504 554.84 535.724 553.215 530.981 555.247C526.238 557.278 534.935 564.798 534.737 572.927C534.539 581.056 540.118 580.456 548.496 584.719C556.873 588.982 564.439 587.089 566.962 583.667C569.483 580.243 570.513 568.507 564.215 568.507Z" fill="#FCBD92"/>
<path d="M535.154 554.027C529.601 554.432 522.694 550.068 521.23 551.389C519.767 552.71 520.045 558.807 522.066 559.925C524.088 561.043 524.854 559.01 529.245 560.534C533.636 562.059 534.961 563.99 536.634 561.347C538.307 558.705 539.389 553.718 535.154 554.027Z" fill="#FCBD92"/>
<path d="M534.412 559.26C529.013 560.709 519.546 561.011 516.711 563.26C513.876 565.509 510.35 566.728 509.036 567.261C507.723 567.795 505.51 569.547 504.058 570.386C503.712 571.377 506.408 573.815 509.727 573.968C511.455 575.492 509.811 577.325 514.921 578.009C520.03 578.692 525.7 579.379 527.152 580.064C528.605 580.75 535.061 581.181 540.164 581.004C545.268 580.827 545.199 576.33 544.024 573.968C542.848 571.605 544.421 566.543 542.641 564.927C540.861 563.31 541.604 560.022 538.977 559.183C536.348 558.345 536.548 558.686 534.412 559.26Z" fill="#FCBD92"/>
<path d="M522.39 551.179C519.189 552.008 513.03 552.878 511.344 553.403C509.658 553.928 508.646 556.976 509.456 559.11C510.266 561.244 513.646 560.939 516.424 560.482C519.202 560.025 520.11 559.466 522.821 559.923C524.573 560.219 527.5 549.855 522.39 551.179Z" fill="#FCBD92"/>
<path d="M513.025 553.217C514.275 553.644 515.555 557.004 514.518 559.366C513.48 561.729 512.517 561.118 511.405 562.948C510.294 564.777 507.922 565.539 504.364 566.301C502.585 565.996 500.51 563.481 500.288 562.491C500.066 561.501 501.178 559.76 501.178 559.76C501.178 559.76 505.625 558.357 506.292 556.537C506.957 554.717 510.865 552.478 513.025 553.217Z" fill="#FCBD92"/>
<path d="M427.767 450.483H418.795V437.097H427.767V450.483ZM420.906 448.312H425.656V439.269H420.906V448.312Z" fill="#8EDDEB"/>
<path d="M421.621 408.619H413.441V396.414H421.621V408.619ZM415.366 406.64H419.697V398.394H415.366V406.64Z" fill="#8EDDEB"/>
<path d="M478.651 469.534L469.962 463.097L479.044 450.134L487.733 456.571L478.651 469.534ZM473.48 462.509L478.079 465.916L484.215 457.158L479.615 453.751L473.48 462.509Z" fill="#8EDDEB"/>
<path opacity="0.5" d="M427.643 366.543L421.901 368.295L419.428 359.727L425.171 357.975L427.643 366.543ZM422.851 366.493L425.89 365.565L424.219 359.777L421.178 360.705L422.851 366.493Z" fill="#8EDDEB"/>
<path d="M493.692 346.511L487.95 348.265L485.477 339.697L491.219 337.945L493.692 346.511ZM488.899 346.463L491.939 345.535L490.268 339.746L487.228 340.674L488.899 346.463Z" fill="#8EDDEB"/>
<path d="M390.338 402.579L384.596 404.331L382.122 395.764L387.864 394.011L390.338 402.579ZM385.545 402.529L388.585 401.601L386.914 395.813L383.874 396.741L385.545 402.529Z" fill="#8EDDEB"/>
<path d="M464.392 375.489L453.793 373.918L456.01 358.105L466.609 359.675L464.392 375.489ZM456.647 371.723L462.257 372.554L463.754 361.87L458.144 361.039L456.647 371.723Z" fill="#8EDDEB"/>
<path opacity="0.5" d="M456.834 405.46H454.315V421.437H456.834V405.46Z" fill="#8EDDEB"/>
<path d="M447.687 440.717L442.619 455.82L445.001 456.665L450.069 441.562L447.687 440.717Z" fill="#8EDDEB"/>
<path d="M512.473 427.396L507.403 442.499L509.785 443.344L514.855 428.241L512.473 427.396Z" fill="#8EDDEB"/>
<path opacity="0.5" d="M400.96 423.531L399.154 423.923L401.507 435.368L403.312 434.976L400.96 423.531Z" fill="#8EDDEB"/>
<path d="M390.991 364.474L388.52 364.983L391.57 380.65L394.041 380.141L390.991 364.474Z" fill="#8EDDEB"/>
<path opacity="0.5" d="M484.216 393.67H480.841V415.068H484.216V393.67Z" fill="#8EDDEB"/>
<path d="M417.035 349.342L410.784 351.754L407.379 342.427L413.631 340.015L417.035 349.342ZM411.704 349.674L415.013 348.396L412.713 342.095L409.404 343.372L411.704 349.674Z" fill="#8EDDEB"/>
<path opacity="0.5" d="M391.205 470.255L385.208 467.234L389.471 458.289L395.468 461.309L391.205 470.255ZM387.31 466.494L390.485 468.094L393.366 462.049L390.192 460.45L387.31 466.494Z" fill="#8EDDEB"/>
<path d="M402.106 321.824L396.405 324.023L393.302 315.519L399.002 313.32L402.106 321.824ZM397.244 322.127L400.262 320.963L398.165 315.217L395.147 316.382L397.244 322.127Z" fill="#8EDDEB"/>
<path opacity="0.5" d="M455.847 340.659L448.156 338.511L451.188 327.037L458.879 329.185L455.847 340.659ZM450.457 337.155L454.529 338.293L456.577 330.541L452.505 329.403L450.457 337.155Z" fill="#8EDDEB"/>
<path d="M425.828 310.141L424.073 310.818L428.136 321.95L429.892 321.273L425.828 310.141Z" fill="#8EDDEB"/>
<path d="M430.31 337.104L428.435 337.156L428.746 349.041L430.621 348.989L430.31 337.104Z" fill="#8EDDEB"/>
<path d="M432.088 488.763L425.659 483.918L432.496 474.329L438.924 479.174L432.088 488.763ZM428.281 483.503L431.684 486.068L436.303 479.588L432.9 477.024L428.281 483.503Z" fill="#8EDDEB"/>
<path d="M407.741 475.414L403.879 486.622L405.646 487.266L409.508 476.058L407.741 475.414Z" fill="#8EDDEB"/>
<path opacity="0.5" d="M391.514 337.756L390.356 338.515L394.906 345.856L396.064 345.097L391.514 337.756Z" fill="#8EDDEB"/>
<path d="M441.909 294.562L439.557 295.469L445 310.379L447.351 309.471L441.909 294.562Z" fill="#8EDDEB"/>
<path d="M400.189 606.917H385.958V979.141H400.189V606.917Z" fill="#193149"/>
<path d="M404.142 606.917H382.006V620.533H404.142V606.917Z" fill="#193149"/>
<path d="M553.926 606.917H539.696V965.492H553.926V606.917Z" fill="#193149"/>
<path d="M557.879 606.917H535.742V620.533H557.879V606.917Z" fill="#193149"/>
<path opacity="0.1" d="M586.902 965.492C586.902 967.192 572.138 968.57 553.926 968.57C535.714 968.57 520.951 967.192 520.951 965.492C520.951 963.792 535.714 962.413 553.926 962.413C572.137 962.413 586.902 963.791 586.902 965.492Z" fill="#1C1F23"/>
<path opacity="0.1" d="M433.164 979.14C433.164 980.84 418.401 982.218 400.189 982.218C381.977 982.218 367.213 980.84 367.213 979.14C367.213 977.44 381.977 976.061 400.189 976.061C418.401 976.061 433.164 977.44 433.164 979.14Z" fill="#1C1F23"/>
<path d="M464.988 572.941H410.68L398.031 588.225H461.721H544.459V579.789L464.988 572.941Z" fill="#193149"/>
<path d="M464.988 572.941H410.68L398.031 588.225H461.721L464.988 572.941Z" fill="#8EDDEB"/>
<path d="M543.484 347.372H537.495V350.936H543.484V347.372Z" fill="#252D3A"/>
<path d="M517.109 348.537H512.157V351.483H517.109V348.537Z" fill="#252D3A"/>
<path d="M349.156 287.726H340.559V297.507H349.156V287.726Z" fill="#193149"/>
<path d="M267.202 501.849H405.518C409.894 501.849 413.441 498.202 413.441 493.703V297.387C413.441 292.888 409.893 289.241 405.518 289.241H267.202C262.826 289.241 259.279 292.889 259.279 297.387V493.703C259.278 498.202 262.826 501.849 267.202 501.849Z" fill="#193149"/>
<path d="M256.924 501.849H395.241C399.617 501.849 403.163 498.202 403.163 493.703V297.387C403.163 292.888 399.616 289.241 395.241 289.241H256.924C252.548 289.241 249.002 292.889 249.002 297.387V493.703C249.001 498.202 252.548 501.849 256.924 501.849Z" fill="#CCDDEB"/>
<path d="M343.08 391.965V374.098C333.257 374.098 311.24 374.098 297.227 374.098C294.322 374.098 291.752 374.098 289.716 374.098C258.792 440.828 258.792 509.745 289.716 576.475C291.752 576.475 294.321 576.475 297.227 576.475C297.493 576.475 297.755 576.475 298.028 576.475C300.838 576.475 303.945 576.475 307.19 576.475C315.792 576.475 325.383 576.475 333.117 576.475C336.362 576.475 339.469 576.475 342.278 576.475C342.55 576.475 342.824 576.475 343.08 576.475C345.985 576.475 348.555 576.475 350.591 576.475C322.417 515.683 319.922 453.079 343.08 391.965Z" fill="#CCDDEB"/>
<path d="M340.559 284.957C348.255 284.957 354.493 278.543 354.493 270.63C354.493 262.717 348.255 256.303 340.559 256.303C332.864 256.303 326.625 262.717 326.625 270.63C326.625 278.543 332.864 284.957 340.559 284.957Z" fill="#193149"/>
<path d="M333.902 275.121C335.976 275.121 337.656 273.105 337.656 270.618C337.656 268.13 335.976 266.114 333.902 266.114C331.829 266.114 330.148 268.13 330.148 270.618C330.148 273.105 331.829 275.121 333.902 275.121Z" fill="#8EDDEB"/>
<path d="M344.858 283.56H336.261V289.24H344.858V283.56Z" fill="#193149"/>
<path d="M340.559 287.726H331.962V297.507H340.559V287.726Z" fill="#193149"/>
<path d="M350.59 576.475L394.665 582.332V588.225H259.278V581.221L289.716 576.475H350.59Z" fill="#CCDDEB"/>
<path d="M773.092 837.571H746.08V850.515H773.092V837.571Z" fill="#193149"/>
<path d="M746.08 837.571H719.067V850.515H746.08V837.571Z" fill="#F26522"/>
<path d="M719.068 837.571H692.055V850.515H719.068V837.571Z" fill="#193149"/>
<path d="M759.587 824.627H732.574V837.571H759.587V824.627Z" fill="#193149"/>
<path d="M746.08 811.683H719.067V824.627H746.08V811.683Z" fill="#F26522"/>
<path d="M732.574 824.627H705.561V837.571H732.574V824.627Z" fill="#193149"/>
<path d="M693.824 812.451H666.812V825.395H693.824V812.451Z" fill="#193149"/>
<path d="M714.628 795.546L689.25 786.032L684.938 798.193L710.317 807.706L714.628 795.546Z" fill="#F26522"/>
<path d="M743.213 779.604L721.055 763.716L713.854 774.334L736.013 790.222L743.213 779.604Z" fill="#193149"/>
<path d="M692.054 837.571H665.042V850.515H692.054V837.571Z" fill="#F26522"/>
<path d="M229.191 141.092V155.722H225.137C225.124 155.73 225.114 155.738 225.101 155.748V159.642H221.01V163.562H208.74V167.482H196.469C196.469 175.732 196.469 187.022 196.469 200.044C196.469 216.148 229.191 231.017 229.191 231.017C229.191 231.017 261.912 216.148 261.912 200.044C261.912 183.94 261.912 152.882 261.912 152.882C241.496 152.881 229.191 141.092 229.191 141.092Z" fill="#193149"/>
<path d="M229.191 167.481H221.01V171.401H229.191V167.481Z" fill="#193149"/>
<path d="M212.829 167.481H204.649V171.401H212.829V167.481Z" fill="#193149"/>
<path d="M225.101 163.561H216.92V167.481H225.101V163.561Z" fill="#193149"/>
<path d="M229.191 159.641H221.01V163.561H229.191V159.641Z" fill="#193149"/>
<path d="M218.17 154.469L210.135 152.888L209.419 156.738L217.454 158.319L218.17 154.469Z" fill="#193149"/>
<path d="M202.947 154.314H194.767V158.234H202.947V154.314Z" fill="#193149"/>
<path d="M207.844 147.167L200.158 144.286L198.852 147.969L206.538 150.85L207.844 147.167Z" fill="#193149"/>
<path d="M225.713 140.473L223.36 137.032L220.242 139.287L222.594 142.727L225.713 140.473Z" fill="#193149"/>
<path d="M217.905 144.364L211.195 139.553L209.014 142.768L215.724 147.579L217.905 144.364Z" fill="#193149"/>
<path d="M939.472 374.825H823.128V404.349H939.472V374.825Z" fill="#193149"/>
<path d="M841.401 401.377C847.734 401.377 852.867 396.098 852.867 389.587C852.867 383.075 847.734 377.796 841.401 377.796C835.068 377.796 829.934 383.075 829.934 389.587C829.934 396.098 835.068 401.377 841.401 401.377Z" fill="url(#paint1_radial_3_587)"/>
<path d="M876.639 399.364C881.89 399.364 886.148 394.986 886.148 389.587C886.148 384.187 881.89 379.809 876.639 379.809C871.387 379.809 867.13 384.187 867.13 389.587C867.13 394.986 871.387 399.364 876.639 399.364Z" fill="url(#paint2_radial_3_587)"/>
<path d="M901.25 399.364C906.502 399.364 910.759 394.986 910.759 389.587C910.759 384.187 906.502 379.809 901.25 379.809C895.998 379.809 891.741 384.187 891.741 389.587C891.741 394.986 895.998 399.364 901.25 399.364Z" fill="url(#paint3_radial_3_587)"/>
<path d="M913.556 399.364C918.807 399.364 923.064 394.986 923.064 389.587C923.064 384.187 918.807 379.809 913.556 379.809C908.304 379.809 904.047 384.187 904.047 389.587C904.047 394.986 908.304 399.364 913.556 399.364Z" fill="url(#paint4_radial_3_587)"/>
<path opacity="0.3" d="M841.401 394.116C843.833 394.116 845.806 392.088 845.806 389.587C845.806 387.085 843.833 385.057 841.401 385.057C838.968 385.057 836.996 387.085 836.996 389.587C836.996 392.088 838.968 394.116 841.401 394.116Z" fill="#1C1F23"/>
<path d="M845.129 389.587C845.129 391.704 843.46 393.421 841.4 393.421C839.341 393.421 837.67 391.705 837.67 389.587C837.67 387.469 839.34 385.752 841.4 385.752C843.46 385.753 845.129 387.469 845.129 389.587Z" fill="#ED1C24"/>
<path d="M879.436 386.711H873.842V392.462H879.436V386.711Z" fill="#8DC63F"/>
<path d="M904.047 386.711H898.453V392.462H904.047V386.711Z" fill="#8DC63F"/>
<path d="M916.352 386.711H910.759V392.462H916.352V386.711Z" fill="#8DC63F"/>
<path d="M921.479 332.935H911.225V374.825H921.479V332.935Z" fill="#252D3A"/>
<path opacity="0.3" d="M921.479 332.935H911.225V336.817H921.479V332.935Z" fill="#1C1F23"/>
<path d="M916.352 291.046C913.521 291.046 911.225 293.407 911.225 296.318V332.935H921.479V296.318C921.48 293.407 919.184 291.046 916.352 291.046Z" fill="#8EDDEB"/>
<path d="M108.563 384.658H239.45C247.328 384.658 253.714 378.092 253.714 369.992V279.12C253.714 271.02 247.328 264.453 239.45 264.453H108.563C100.686 264.453 94.2997 271.02 94.2997 279.12V369.992C94.2997 378.093 100.686 384.658 108.563 384.658Z" fill="#193149"/>
<path d="M238.052 269.343H109.962V379.77H238.052V269.343Z" fill="#8EDDEB"/>
<path opacity="0.3" d="M223.695 276.724H115.182V281.133H223.695V276.724Z" fill="#1C1F23"/>
<path opacity="0.3" d="M193.305 284.393H137.929V288.802H193.305V284.393Z" fill="#1C1F23"/>
<path opacity="0.3" d="M165.617 292.061H137.929V296.471H165.617V292.061Z" fill="#1C1F23"/>
<path opacity="0.3" d="M197.126 292.061H169.438V296.471H197.126V292.061Z" fill="#1C1F23"/>
<path opacity="0.3" d="M165.617 299.73H151.773V304.139H165.617V299.73Z" fill="#1C1F23"/>
<path opacity="0.3" d="M183.282 299.73H169.438V304.139H183.282V299.73Z" fill="#ED1C24"/>
<path opacity="0.3" d="M190.205 307.398H151.773V311.807H190.205V307.398Z" fill="#ED1C24"/>
<path opacity="0.3" d="M179.461 315.067H151.773V319.476H179.461V315.067Z" fill="#1C1F23"/>
<path opacity="0.3" d="M210.97 315.067H183.282V319.476H210.97V315.067Z" fill="#1C1F23"/>
<path opacity="0.3" d="M179.461 322.736H165.617V327.145H179.461V322.736Z" fill="#1C1F23"/>
<path opacity="0.3" d="M197.126 322.736H183.282V327.145H197.126V322.736Z" fill="#1C1F23"/>
<path opacity="0.3" d="M204.049 330.404H165.617V334.813H204.049V330.404Z" fill="#ED1C24"/>
<path opacity="0.3" d="M193.305 338.072H165.617V342.481H193.305V338.072Z" fill="#1C1F23"/>
<path opacity="0.3" d="M224.814 338.072H197.126V342.481H224.814V338.072Z" fill="#1C1F23"/>
<path opacity="0.3" d="M200.53 345.74H179.461V350.15H200.53V345.74Z" fill="#1C1F23"/>
<path opacity="0.3" d="M210.97 345.74H204.351V350.15H210.97V345.74Z" fill="#ED1C24"/>
<path opacity="0.3" d="M205.703 353.41H179.461V357.819H205.703V353.41Z" fill="#1C1F23"/>
<path opacity="0.3" d="M193.305 361.078H179.461V365.487H193.305V361.078Z" fill="#1C1F23"/>
<path opacity="0.3" d="M109.962 269.343V271.931H235.535V379.77H238.052V269.343H109.962Z" fill="#1C1F23"/>
<path d="M89.089 424.151H133.184C138.204 424.151 142.273 419.967 142.273 414.805V329.589C142.273 324.427 138.204 320.243 133.184 320.243H89.089C84.0692 320.243 80 324.427 80 329.589V414.805C80 419.966 84.0692 424.151 89.089 424.151Z" fill="#193149"/>
<path d="M140.223 333.086H82.0511V411.306H140.223V333.086Z" fill="#44ABB0"/>
<path opacity="0.3" d="M82.0511 333.086V335.1H138.171V411.306H140.222V333.086H82.0511Z" fill="#1C1F23"/>
<path opacity="0.3" d="M121.137 344.406H96.7726V347.728H121.137V344.406Z" fill="#ED1C24"/>
<path opacity="0.3" d="M116.728 355.96H110.636V359.281H116.728V355.96Z" fill="#ED1C24"/>
<path opacity="0.3" d="M119.773 361.736H102.864V365.058H119.773V361.736Z" fill="#ED1C24"/>
<path opacity="0.3" d="M122.819 373.289H116.728V376.611H122.819V373.289Z" fill="#ED1C24"/>
<path opacity="0.3" d="M121.137 384.842H108.955V388.164H121.137V384.842Z" fill="#ED1C24"/>
<path opacity="0.3" d="M128.909 390.618H125.998V393.94H128.909V390.618Z" fill="#ED1C24"/>
<path opacity="0.3" d="M121.138 402.172H115.046V405.494H121.138V402.172Z" fill="#ED1C24"/>
<path d="M821.161 153.078C814.412 153.078 808.921 147.432 808.921 140.491C808.921 133.552 814.412 127.905 821.161 127.905C827.912 127.905 833.402 133.551 833.402 140.491C833.402 147.432 827.912 153.078 821.161 153.078ZM821.161 131.607C816.396 131.607 812.519 135.593 812.519 140.492C812.519 145.392 816.396 149.378 821.161 149.378C825.925 149.378 829.803 145.392 829.803 140.492C829.804 135.593 825.925 131.607 821.161 131.607Z" fill="#ED1C24"/>
<path d="M821.161 243.426C810.993 243.426 802.722 234.921 802.722 224.466C802.722 214.012 810.993 205.507 821.161 205.507C831.328 205.507 839.599 214.012 839.599 224.466C839.599 234.921 831.329 243.426 821.161 243.426ZM821.161 211.084C813.984 211.084 808.145 217.087 808.145 224.466C808.145 231.846 813.984 237.849 821.161 237.849C828.337 237.849 834.176 231.845 834.176 224.466C834.176 217.088 828.337 211.084 821.161 211.084Z" fill="#193149"/>
<path d="M717.937 263.21C704.64 263.21 693.821 252.085 693.821 238.412C693.821 224.74 704.64 213.615 717.937 213.615C731.235 213.615 742.054 224.74 742.054 238.412C742.054 252.085 731.235 263.21 717.937 263.21ZM717.937 220.909C708.551 220.909 700.914 228.76 700.914 238.413C700.914 248.065 708.55 255.916 717.937 255.916C727.324 255.916 734.96 248.065 734.96 238.413C734.961 228.76 727.324 220.909 717.937 220.909Z" fill="#193149"/>
<path d="M746.855 125.306C742.455 125.306 738.875 121.626 738.875 117.102C738.875 112.578 742.455 108.898 746.855 108.898C751.255 108.898 754.834 112.578 754.834 117.102C754.834 121.626 751.255 125.306 746.855 125.306ZM746.855 111.311C743.749 111.311 741.222 113.909 741.222 117.102C741.222 120.295 743.749 122.894 746.855 122.894C749.96 122.894 752.487 120.295 752.487 117.102C752.487 113.909 749.96 111.311 746.855 111.311Z" fill="#193149"/>
<path d="M812.943 147.237L811.714 145.181L766.891 173.5L750.17 123.328L747.951 124.111L764.938 175.086L729.738 221.052L731.582 222.544L766.415 177.06L808.534 214.762L810.075 212.942L768.231 175.485L812.943 147.237Z" fill="#193149"/>
<path d="M766.255 206C782.736 206 796.096 192.263 796.096 175.317C796.096 158.371 782.736 144.633 766.255 144.633C749.774 144.633 736.414 158.371 736.414 175.317C736.414 192.263 749.774 206 766.255 206Z" fill="#193149"/>
<path d="M770.295 195.712C781.264 193.427 788.354 182.432 786.131 171.154C783.909 159.876 773.215 152.586 762.247 154.871C751.279 157.157 744.189 168.152 746.412 179.43C748.634 190.708 759.327 197.998 770.295 195.712Z" fill="#8EDDEB"/>
<path d="M504.516 42H474.964V74.7832H504.516V42Z" fill="#193149"/>
<path d="M504.518 74.7839L621.281 74.7839V42.0008L504.518 42.0008V74.7839Z" fill="#8EDDEB"/>
<path d="M525.213 58.3921C525.213 61.4888 522.771 63.9996 519.76 63.9996C516.748 63.9996 514.306 61.4888 514.306 58.3921C514.306 55.2954 516.748 52.7845 519.76 52.7845C522.771 52.7845 525.213 55.2954 525.213 58.3921Z" fill="#193149"/>
<path d="M545.069 58.3921C545.069 61.4888 542.627 63.9996 539.616 63.9996C536.604 63.9996 534.162 61.4888 534.162 58.3921C534.162 55.2954 536.604 52.7845 539.616 52.7845C542.627 52.7845 545.069 55.2954 545.069 58.3921Z" fill="#193149"/>
<path d="M559.473 63.9996C562.485 63.9996 564.926 61.489 564.926 58.3921C564.926 55.2951 562.485 52.7845 559.473 52.7845C556.461 52.7845 554.019 55.2951 554.019 58.3921C554.019 61.489 556.461 63.9996 559.473 63.9996Z" fill="#193149"/>
<path d="M584.783 58.3921C584.783 61.4888 582.341 63.9996 579.329 63.9996C576.317 63.9996 573.876 61.4888 573.876 58.3921C573.876 55.2954 576.317 52.7845 579.329 52.7845C582.341 52.7845 584.783 55.2954 584.783 58.3921Z" fill="#193149"/>
<path d="M604.64 58.3921C604.64 61.4888 602.198 63.9996 599.186 63.9996C596.175 63.9996 593.733 61.4888 593.733 58.3921C593.733 55.2954 596.175 52.7845 599.186 52.7845C602.198 52.7845 604.64 55.2954 604.64 58.3921Z" fill="#193149"/>
<path opacity="0.3" d="M504.516 42L511.275 74.7832H504.516V42Z" fill="#1C1F23"/>
<path d="M456.636 81.8738L453.655 73.0945C451.932 68.0183 452.234 62.5556 454.507 57.7127C456.779 52.8698 460.749 49.2263 465.686 47.4544C470.623 45.6836 475.937 45.9929 480.645 48.3291C485.355 50.6652 488.898 54.7476 490.622 59.8238L493.603 68.6031L487.266 70.8776L484.285 62.0983C481.946 55.2121 474.596 51.5656 467.899 53.9695C461.202 56.3735 457.655 63.9318 459.993 70.819L462.974 79.5973L456.636 81.8738Z" fill="#F26522"/>
<path d="M476.025 78.4349H449.363V111.218L463.719 120.612H476.025H488.33L502.687 111.218V78.4349H476.025Z" fill="#193149"/>
<path d="M709.649 59.7775H654.225V69.7655H709.649V59.7775Z" fill="#193149"/>
<path d="M654.225 142.031H709.649V132.043H654.225V142.031Z" fill="#193149"/>
<path d="M709.649 69.7656H681.937H654.225L676.652 100.904L654.225 132.043H681.937H709.649L687.222 100.904L709.649 69.7656Z" fill="#8EDDEB"/>
<path d="M678.785 122.393C673.212 122.979 666.32 126.998 659.991 126.998L657.627 130.279H678.721H678.785H681.937H685.09H685.154H706.248L703.884 126.998C697.554 126.998 690.663 122.979 685.09 122.392C683.522 122.229 680.353 122.229 678.785 122.393Z" fill="#193149"/>
<path d="M693.821 88.7805C686.842 86.1299 681.457 88.7312 676.59 87.1114C674.176 86.3077 671 86.3015 668.409 86.4999L678.784 100.904C678.784 100.904 681.149 104.017 681.149 110.619V123.236H682.725V110.619C682.725 104.017 685.09 100.904 685.09 100.904L693.821 88.7805Z" fill="#193149"/>
<path d="M871.433 293.165C876.883 293.165 881.301 288.622 881.301 283.02V250.553H861.567V283.02C861.566 288.623 865.984 293.165 871.433 293.165Z" fill="#193149"/>
<path d="M878.635 239.064H864.229V250.553H878.635V239.064Z" fill="#F26522"/>
<path d="M388.961 115.926C385.469 115.926 382.219 116.956 379.45 118.711C379.402 103.507 367.402 91.1948 352.604 91.1948C339.996 91.1948 329.423 100.132 326.538 112.181C325.215 111.822 323.833 111.613 322.399 111.613C313.44 111.613 306.178 119.081 306.178 128.292C306.178 128.474 306.199 128.652 306.205 128.833C301.394 130.527 297.928 135.206 297.928 140.729C297.928 147.677 303.407 153.31 310.164 153.31H388.962C399.001 153.31 407.141 144.941 407.141 134.618C407.14 124.294 399 115.926 388.961 115.926Z" fill="#8EDDEB"/>
<path d="M319.775 175.083H309.673V160.012H319.775V175.083ZM312.051 172.639H317.398V162.456H312.051V172.639Z" fill="#8EDDEB"/>
<path d="M315.913 177.481H313.536V192.553H315.913V177.481Z" fill="#8EDDEB"/>
<path d="M376.488 175.083H366.387V160.012H376.488V175.083ZM368.764 172.639H374.11V162.456H368.764V172.639Z" fill="#8EDDEB"/>
<path d="M376.488 210.024H366.387V194.952H376.488V210.024ZM368.764 207.58H374.11V197.396H368.764V207.58Z" fill="#8EDDEB"/>
<path d="M372.626 177.481H370.249V192.553H372.626V177.481Z" fill="#8EDDEB"/>
<path d="M338.68 210.024H328.579V194.952H338.68V210.024ZM330.955 207.58H336.302V197.396H330.955V207.58Z" fill="#8EDDEB"/>
<path d="M334.817 177.481H332.44V192.553H334.817V177.481Z" fill="#8EDDEB"/>
<path d="M334.817 160.012H332.44V175.083H334.817V160.012Z" fill="#8EDDEB"/>
<path d="M395.393 175.083H385.291V160.012H395.393V175.083ZM387.668 172.639H393.016V162.456H387.668V172.639Z" fill="#8EDDEB"/>
<path d="M391.53 177.481H389.154V192.553H391.53V177.481Z" fill="#8EDDEB"/>
<path d="M357.585 192.554H347.482V177.482H357.585V192.554ZM349.86 190.108H355.208V179.925H349.86V190.108Z" fill="#8EDDEB"/>
<path d="M353.721 194.952H351.344V210.024H353.721V194.952Z" fill="#8EDDEB"/>
<path d="M353.721 160.012H351.344V175.083H353.721V160.012Z" fill="#8EDDEB"/>
<path d="M374.308 135.305C376.27 135.305 377.861 134.408 377.861 133.302C377.861 132.196 376.27 131.299 374.308 131.299C372.346 131.299 370.756 132.196 370.756 133.302C370.756 134.408 372.346 135.305 374.308 135.305Z" fill="#252D3A"/>
<path d="M374.308 110.913H362.733L364.034 113.021C364.458 113.707 364.681 114.487 364.681 115.281V128.789C364.681 131.281 366.836 133.302 369.494 133.302H374.307H379.12C381.778 133.302 383.933 131.281 383.933 128.789V115.281C383.933 114.487 384.156 113.707 384.581 113.021L385.881 110.913H374.308Z" fill="#193149"/>
<path d="M362.733 110.913C360.67 108.791 361.358 105.374 361.358 100.779C361.358 97.7089 358.194 93.7632 355.71 91.1496C345.439 80.5881 345.439 63.4652 355.71 52.9048C365.982 42.3433 382.634 42.3433 392.905 52.9048C403.176 63.4662 403.176 80.5891 392.905 91.1496C390.421 93.7632 387.257 97.7089 387.257 100.779C387.257 105.374 387.945 108.791 385.882 110.913H362.733Z" fill="#F26522"/>
<path opacity="0.96" d="M167.501 741.965C186.254 767.467 207.609 790.831 231.166 811.639L385.807 820.889V648.479H167.501V741.965Z" fill="#193149"/>
<path d="M212.653 756.888C211.006 757.69 207.797 758.315 203.809 758.315C188.896 758.315 181.785 745.654 181.785 728.625C181.785 705.98 194.01 697.153 205.369 697.153C209.358 697.153 212.132 697.955 213.26 698.759L211.352 708.566C210.051 707.942 208.577 707.407 206.063 707.407C199.647 707.407 193.837 713.113 193.837 728.001C193.837 742.356 199.127 747.973 206.063 747.973C207.971 747.973 210.138 747.527 211.526 747.082L212.653 756.888Z" fill="#8EDDEB"/>
<path d="M251.363 727.608C251.363 750.973 243.559 760.449 232.46 760.449C219.194 760.449 213.991 745.546 213.991 728.528C213.991 711.601 220.322 696.974 233.241 696.974C247.375 696.975 251.363 713.441 251.363 727.608ZM225.784 728.712C225.784 742.788 228.299 749.962 232.894 749.962C237.663 749.962 239.484 740.762 239.484 728.16C239.484 717.304 237.924 707.462 232.808 707.462C228.299 707.462 225.784 715.373 225.784 728.712Z" fill="#8EDDEB"/>
<path d="M257.557 698.665C260.419 697.908 264.58 697.434 269.089 697.434C276.46 697.434 281.575 699.329 285.304 703.117C290.333 708.042 292.934 716.472 292.934 728.878C292.934 741.759 289.9 750.947 284.784 755.872C280.883 760.039 275.073 762.028 266.922 762.028C263.367 762.028 259.812 761.65 257.557 761.365V698.665ZM268.916 751.706C269.436 751.896 270.303 751.896 270.91 751.896C276.373 751.896 281.142 746.023 281.142 728.406C281.142 715.336 278.02 707.38 271.17 707.38C270.389 707.38 269.61 707.38 268.916 707.665V751.706Z" fill="#8EDDEB"/>
<path d="M324.839 734.665H311.486V752.451H326.573V763.59H300.127V697.728H325.533V708.868H311.486V724.016H324.839V734.665Z" fill="#8EDDEB"/>
<path d="M335.289 698.744C338.844 697.939 343.352 697.434 347.688 697.434C353.931 697.434 359.48 698.442 363.295 702.472C366.851 706.2 367.891 710.735 367.891 716.578C367.891 723.833 364.856 730.382 358.874 733.606V733.806C362.862 735.62 364.856 739.952 365.984 747.206C367.111 754.764 368.672 763.126 369.712 765.645H357.834C357.14 763.73 355.839 756.879 354.972 749.423C353.931 740.96 352.11 738.541 348.295 738.541H346.648V765.646H335.289V698.744ZM346.648 728.367H348.642C353.584 728.367 356.445 723.733 356.445 717.788C356.445 712.044 354.451 707.913 349.335 707.713C348.382 707.713 347.254 707.814 346.648 708.116V728.367Z" fill="#8EDDEB"/>
<path d="M385.807 674.173V648.479H360.818L385.807 674.173Z" fill="#F26522"/>
</g>
<defs>
<linearGradient id="paint0_linear_3_587" x1="724.469" y1="275.991" x2="112.139" y2="888.321" gradientUnits="userSpaceOnUse">
<stop stop-color="white"/>
<stop offset="1" stop-color="#DFE7E8"/>
</linearGradient>
<radialGradient id="paint1_radial_3_587" cx="0" cy="0" r="1" gradientUnits="userSpaceOnUse" gradientTransform="translate(841.4 389.587) scale(11.4666 11.7904)">
<stop stop-color="#FF1C24"/>
<stop offset="0.0347" stop-color="#EC1A21"/>
<stop offset="0.1442" stop-color="#B5141A"/>
<stop offset="0.2575" stop-color="#850F13"/>
<stop offset="0.3722" stop-color="#5C0A0D"/>
<stop offset="0.4889" stop-color="#3B0608"/>
<stop offset="0.6079" stop-color="#210405"/>
<stop offset="0.7302" stop-color="#0F0202"/>
<stop offset="0.858" stop-color="#040001"/>
<stop offset="1"/>
</radialGradient>
<radialGradient id="paint2_radial_3_587" cx="0" cy="0" r="1" gradientUnits="userSpaceOnUse" gradientTransform="translate(876.639 389.587) scale(9.50887 9.77739)">
<stop stop-color="#8DC63F"/>
<stop offset="0.042" stop-color="#80B439"/>
<stop offset="0.1668" stop-color="#5F852A"/>
<stop offset="0.2955" stop-color="#425C1D"/>
<stop offset="0.4264" stop-color="#2A3B13"/>
<stop offset="0.5599" stop-color="#17210A"/>
<stop offset="0.6972" stop-color="#0A0E05"/>
<stop offset="0.8406" stop-color="#030401"/>
<stop offset="1"/>
</radialGradient>
<radialGradient id="paint3_radial_3_587" cx="0" cy="0" r="1" gradientUnits="userSpaceOnUse" gradientTransform="translate(901.25 389.587) scale(9.50887 9.77739)">
<stop stop-color="#8DC63F"/>
<stop offset="0.042" stop-color="#80B439"/>
<stop offset="0.1668" stop-color="#5F852A"/>
<stop offset="0.2955" stop-color="#425C1D"/>
<stop offset="0.4264" stop-color="#2A3B13"/>
<stop offset="0.5599" stop-color="#17210A"/>
<stop offset="0.6972" stop-color="#0A0E05"/>
<stop offset="0.8406" stop-color="#030401"/>
<stop offset="1"/>
</radialGradient>
<radialGradient id="paint4_radial_3_587" cx="0" cy="0" r="1" gradientUnits="userSpaceOnUse" gradientTransform="translate(913.556 389.587) scale(9.50887 9.77739)">
<stop stop-color="#8DC63F"/>
<stop offset="0.042" stop-color="#80B439"/>
<stop offset="0.1668" stop-color="#5F852A"/>
<stop offset="0.2955" stop-color="#425C1D"/>
<stop offset="0.4264" stop-color="#2A3B13"/>
<stop offset="0.5599" stop-color="#17210A"/>
<stop offset="0.6972" stop-color="#0A0E05"/>
<stop offset="0.8406" stop-color="#030401"/>
<stop offset="1"/>
</radialGradient>
<clipPath id="clip0_3_587">
<rect width="1000" height="1000" fill="white"/>
</clipPath>
</defs>
</svg>
